<svg width="100" height="100" viewBox="0 0 100 100" fill="none" xmlns="http://www.w3.org/2000/svg">
<path d="M54.6875 69.2708C54.7333 69.1583 91.5875 23.825 91.6667 23.7292L71.0917 0H29.2L8.33331 23.4375L45.4 69.3125C49.9916 75.6792 45.8916 81.1875 45.8916 81.1875C43.25 85.3542 40.9083 88.5917 40.9083 91.7458C40.9083 96.3042 44.975 100 50 100C55.0292 100 59.0958 96.3042 59.0958 91.7458C59.0958 88.4375 56.6 85.6542 53.7208 81.1875C51.4875 77.5083 51.7792 73.0583 54.6875 69.2708ZM42.6833 39.7583L36.4708 25H63.5291L55.3041 44.5292C51.7667 42.4667 47.7042 39.4708 42.6833 39.7583ZM64.2583 44.2042C62.6 46.1542 60.9166 46.5333 59.1375 46.1583L68.05 25H79.8958C79.825 25.0875 64.2208 44.3083 64.2583 44.2042ZM67.2875 8.33333L78.125 20.8333H67.5292L55.0291 8.33333H67.2875ZM61.6375 20.8333H38.3625L50 9.19583L61.6375 20.8333ZM32.9333 8.33333H44.9708L32.4708 20.8333H21.8083L32.9333 8.33333ZM31.95 25L38.5708 40.725C37.3708 41.225 36.1083 41.9667 34.8041 42.9292L20.3125 25H31.95ZM50.525 96.325C50.7577 96.2378 50.9832 96.132 51.2004 96.009C51.3983 95.8971 51.5894 95.7709 51.7729 95.6316C51.9606 95.489 52.1405 95.3327 52.3117 95.1638C52.518 94.9602 52.7118 94.7383 52.8915 94.5C53.1173 94.2008 53.321 93.8758 53.5 93.5291C53.5884 93.3579 53.6707 93.1814 53.7467 93C53.8805 92.6808 53.9945 92.3466 54.0871 92C54.1734 91.6767 54.241 91.3427 54.2885 91C54.3336 90.6739 54.3606 90.3399 54.368 90C54.374 89.725 54.3672 89.446 54.347 89.1641C54.3206 88.7964 54.2714 88.4236 54.1978 88.048C54.1366 87.7349 54.0584 87.4199 53.9625 87.1042C54.2013 87.387 54.4163 87.6685 54.6087 87.9478C54.8531 88.3026 55.0609 88.6539 55.2347 89C55.3586 89.2468 55.4652 89.4909 55.5553 89.7318C55.6222 89.9107 55.68 90.0878 55.7291 90.2629C55.7993 90.5129 55.8517 90.7589 55.8874 91C55.9382 91.3439 55.955 91.6779 55.9408 92C55.9255 92.3482 55.8739 92.6824 55.7898 93C55.6958 93.3553 55.5612 93.6899 55.3913 94C55.2765 94.2097 55.1455 94.4083 55 94.5945C54.8792 94.7492 54.7485 94.8953 54.6087 95.0323C54.4213 95.216 54.2176 95.3832 54 95.5325C53.6924 95.7434 53.3569 95.9184 53 96.053C52.6822 96.1729 52.3473 96.2607 52 96.3133C51.6763 96.3623 51.3417 96.3808 51 96.3663C50.8431 96.3596 50.6846 96.3459 50.525 96.325Z" fill="#333333"/>
</svg>
