<svg width="100" height="100" viewBox="0 0 100 100" fill="none" xmlns="http://www.w3.org/2000/svg">
<path fill-rule="evenodd" clip-rule="evenodd" d="M100 34.1667C100 32.8417 99.475 31.5709 98.5375 30.6292C97.5958 29.6917 96.325 29.1667 95 29.1667H67.5C66.175 29.1667 64.9042 29.6917 63.9625 30.6292C63.025 31.5709 62.5 32.8417 62.5 34.1667V90.8334C62.5 92.1584 63.025 93.4292 63.9625 94.3709C64.9042 95.3084 66.175 95.8334 67.5 95.8334H95C96.325 95.8334 97.5958 95.3084 98.5375 94.3709C99.475 93.4292 100 92.1584 100 90.8334V34.1667ZM54.1667 95.8334H20.8333L31.6625 83.3334H54.1667V95.8334ZM81.25 91.6667C78.9458 91.6667 77.0833 89.8001 77.0833 87.5001C77.0833 85.2001 78.9458 83.3334 81.25 83.3334C83.55 83.3334 85.4125 85.2001 85.4125 87.5001C85.4125 89.8001 83.55 91.6667 81.25 91.6667ZM95.8333 79.1667V41.5667H66.6667V79.1667H95.8333ZM87.5 20.8334H79.1667V12.5001H8.33333V66.6667H54.1667V75.0001H0V4.16675H87.5V20.8334ZM85.4167 37.5001C86.5667 37.5001 87.5 36.5667 87.5 35.4167C87.5 34.2667 86.5667 33.3334 85.4167 33.3334H77.0833C75.9333 33.3334 75 34.2667 75 35.4167C75 36.5667 75.9333 37.5001 77.0833 37.5001H85.4167Z" fill="#333333"/>
</svg>
