<svg width="100" height="100" viewBox="0 0 100 100" fill="none" xmlns="http://www.w3.org/2000/svg">
<path fill-rule="evenodd" clip-rule="evenodd" d="M50.7417 0.00416667L51.8083 0.0208333L52.8708 0.0416667L53.925 0.075L54.9708 0.116667L56.0083 0.166667L57.0375 0.229167L58.0625 0.295833L59.0708 0.375L60.075 0.458333L61.0708 0.554167L62.0542 0.654167L63.025 0.766667L63.9875 0.883333L64.9417 1.0125L65.8792 1.14583L66.8083 1.2875L67.725 1.4375L68.6292 1.59583L69.5208 1.7625L70.4 1.93333L71.2667 2.1125L72.1208 2.3L72.9583 2.49167L73.7833 2.69167L74.5917 2.9L75.3875 3.1125L76.1667 3.33333L76.9292 3.55833L77.6792 3.79167L78.4083 4.02917L79.125 4.275L79.825 4.525L80.5042 4.77917L81.1708 5.04167L81.8167 5.30833L82.4417 5.58333L82.75 5.72083L83.0542 5.85833L83.35 6L83.6417 6.14167L83.9292 6.2875L84.2125 6.43333L84.4917 6.57917L84.7667 6.725L85.0333 6.875L85.3 7.025L85.5583 7.175L85.8083 7.325L86.0583 7.47917L86.3 7.63333L86.5417 7.7875L86.7708 7.94583L87 8.10417L87.2208 8.2625L87.4375 8.42083L87.65 8.58333L87.8583 8.74583L88.0583 8.90833L88.2542 9.07083L88.4417 9.2375L88.625 9.40417L88.8042 9.57083L88.975 9.7375L89.1417 9.90833L89.3042 10.0792L89.4583 10.25L89.6083 10.4208L89.75 10.5917L89.8875 10.7667L90.0208 10.9417L90.1458 11.1167L90.2667 11.2917L90.3792 11.4667L90.4875 11.6458L90.5875 11.825L90.6833 12.0042L90.7708 12.1833L90.8542 12.3625L90.9292 12.5458L91 12.725L91.0625 12.9083L91.1167 13.0917L91.1667 13.275L91.2125 13.4625L91.25 13.6458L91.2792 13.8333L91.3042 14.0208L91.3208 14.2083L91.3292 14.3958L91.3333 14.5833V85.4167L91.3292 85.6042L91.3208 85.7917L91.3042 85.9792L91.2792 86.1667L91.25 86.3542L91.2125 86.5375L91.1667 86.725L91.1167 86.9083L91.0625 87.0917L91 87.275L90.9292 87.4542L90.8542 87.6375L90.7708 87.8167L90.6833 87.9958L90.5875 88.175L90.4875 88.3542L90.3792 88.5333L90.2667 88.7083L90.1458 88.8833L90.0208 89.0583L89.8875 89.2333L89.75 89.4083L89.6083 89.5792L89.4583 89.75L89.3042 89.9208L89.1417 90.0917L88.975 90.2625L88.8042 90.4292L88.625 90.5958L88.4417 90.7625L88.2542 90.9292L88.0583 91.0917L87.8583 91.2542L87.65 91.4167L87.4375 91.5792L87.2208 91.7375L87 91.8958L86.7708 92.0542L86.5417 92.2125L86.3 92.3667L86.0583 92.5208L85.8083 92.675L85.5583 92.825L85.3 92.975L85.0333 93.125L84.7667 93.275L84.4917 93.4208L84.2125 93.5667L83.9292 93.7125L83.6417 93.8583L83.35 94L83.0542 94.1417L82.75 94.2792L82.4417 94.4167L81.8167 94.6917L81.1708 94.9583L80.5042 95.2208L79.825 95.475L79.125 95.725L78.4083 95.9708L77.6792 96.2083L76.9292 96.4417L76.1667 96.6667L75.3875 96.8875L74.5917 97.1L73.7833 97.3083L72.9583 97.5083L72.1208 97.7L71.2667 97.8875L70.4 98.0667L69.5208 98.2375L68.6292 98.4042L67.725 98.5625L66.8083 98.7125L65.8792 98.8542L64.9417 98.9875L63.9875 99.1167L63.025 99.2333L62.0542 99.3458L61.0708 99.4458L60.075 99.5417L59.0708 99.625L58.0625 99.7042L57.0375 99.7708L56.0083 99.8333L54.9708 99.8833L53.925 99.925L52.8708 99.9583L51.8083 99.9792L50.7417 99.9958L49.6667 100L48.5917 99.9958L47.525 99.9792L46.4625 99.9583L45.4083 99.925L44.3625 99.8833L43.325 99.8333L42.2958 99.7708L41.275 99.7042L40.2625 99.625L39.2583 99.5417L38.2667 99.4458L37.2833 99.3458L36.3083 99.2333L35.3458 99.1167L34.3958 98.9875L33.4542 98.8542L32.525 98.7125L31.6083 98.5625L30.7042 98.4042L29.8125 98.2375L28.9333 98.0667L28.0667 97.8875L27.2167 97.7L26.3792 97.5083L25.5542 97.3083L24.7417 97.1L23.95 96.8875L23.1708 96.6667L22.4042 96.4417L21.6583 96.2083L20.925 95.9708L20.2083 95.725L19.5125 95.475L18.8292 95.2208L18.1667 94.9583L17.5208 94.6917L16.8917 94.4167L16.5833 94.2792L16.2833 94.1417L15.9833 94L15.6917 93.8583L15.4042 93.7125L15.1208 93.5667L14.8417 93.4208L14.5667 93.275L14.3 93.125L14.0375 92.975L13.7792 92.825L13.525 92.675L13.275 92.5208L13.0333 92.3667L12.7958 92.2125L12.5625 92.0542L12.3333 91.8958L12.1125 91.7375L11.8958 91.5792L11.6833 91.4167L11.4792 91.2542L11.275 91.0917L11.0833 90.9292L10.8917 90.7625L10.7083 90.5958L10.5292 90.4292L10.3583 90.2625L10.1917 90.0917L10.0292 89.9208L9.875 89.75L9.725 89.5792L9.58333 89.4083L9.44583 89.2333L9.3125 89.0583L9.1875 88.8833L9.06667 88.7083L8.95417 88.5333L8.84583 88.3542L8.74583 88.175L8.65 87.9958L8.5625 87.8167L8.47917 87.6375L8.40417 87.4542L8.33333 87.275L8.27083 87.0917L8.21667 86.9083L8.16667 86.725L8.12083 86.5375L8.08333 86.3542L8.05417 86.1667L8.02917 85.9792L8.0125 85.7917L8.00417 85.6042L8 85.4167V14.5833L8.00417 14.3958L8.0125 14.2083L8.02917 14.0208L8.05417 13.8333L8.08333 13.6458L8.12083 13.4625L8.16667 13.275L8.21667 13.0917L8.27083 12.9083L8.33333 12.725L8.40417 12.5458L8.47917 12.3625L8.5625 12.1833L8.65 12.0042L8.74583 11.825L8.84583 11.6458L8.95417 11.4667L9.06667 11.2917L9.1875 11.1167L9.3125 10.9417L9.44583 10.7667L9.58333 10.5917L9.725 10.4208L9.875 10.25L10.0292 10.0792L10.1917 9.90833L10.3583 9.7375L10.5292 9.57083L10.7083 9.40417L10.8917 9.2375L11.0833 9.07083L11.275 8.90833L11.4792 8.74583L11.6833 8.58333L11.8958 8.42083L12.1125 8.2625L12.3333 8.10417L12.5625 7.94583L12.7958 7.7875L13.0333 7.63333L13.275 7.47917L13.525 7.325L13.7792 7.175L14.0375 7.025L14.3 6.875L14.5667 6.725L14.8417 6.57917L15.1208 6.43333L15.4042 6.2875L15.6917 6.14167L15.9833 6L16.2833 5.85833L16.5833 5.72083L16.8917 5.58333L17.5208 5.30833L18.1667 5.04167L18.8292 4.77917L19.5125 4.525L20.2083 4.275L20.925 4.02917L21.6583 3.79167L22.4042 3.55833L23.1708 3.33333L23.95 3.1125L24.7417 2.9L25.5542 2.69167L26.3792 2.49167L27.2167 2.3L28.0667 2.1125L28.9333 1.93333L29.8125 1.7625L30.7042 1.59583L31.6083 1.4375L32.525 1.2875L33.4542 1.14583L34.3958 1.0125L35.3458 0.883333L36.3083 0.766667L37.2833 0.654167L38.2667 0.554167L39.2583 0.458333L40.2625 0.375L41.275 0.295833L42.2958 0.229167L43.325 0.166667L44.3625 0.116667L45.4083 0.075L46.4625 0.0416667L47.525 0.0208333L48.5917 0.00416667L49.6667 0L50.7417 0.00416667ZM12.1667 85.4167V85.4583L12.1708 85.5458L12.1833 85.6333L12.2 85.725L12.2208 85.8125L12.2458 85.9042L12.275 85.9958L12.3125 86.0917L12.3542 86.1833L12.4 86.2792L12.45 86.375L12.5042 86.4708L12.5667 86.5667L12.6333 86.6667L12.7042 86.7625L12.7792 86.8625L12.8583 86.9625L12.9458 87.0625L13.0375 87.1667L13.1333 87.2667L13.2333 87.3708L13.45 87.575L13.6833 87.7833L13.9375 87.9958L14.2125 88.2083L14.5042 88.4208L14.8167 88.6333L15.1458 88.85L15.4958 89.0667L15.8625 89.2833L16.2458 89.5L16.65 89.7167L17.075 89.9292L17.5125 90.1458L17.9708 90.3625L18.4458 90.575L18.9417 90.7875L19.4542 91L19.9833 91.2083L20.5292 91.4167L21.0917 91.625L21.6708 91.825L22.2708 92.0292L22.8833 92.225L23.5167 92.4208L24.1625 92.6167L24.8292 92.8042L25.5083 92.9917L26.2042 93.1708L26.9167 93.35L27.65 93.5208L28.3917 93.6917L29.1542 93.8542L29.9333 94.0167L30.725 94.1708L31.5333 94.3167L32.3542 94.4625L33.1958 94.6L34.0458 94.7292L34.9167 94.8542L35.8 94.975L36.7 95.0875L37.6125 95.1917L38.5375 95.2917L39.4792 95.3792L40.4375 95.4625L41.4083 95.5375L42.3917 95.6042L43.3917 95.6667L44.4042 95.7167L45.4292 95.7583L46.4667 95.7917L47.5208 95.8125L48.5875 95.8292L49.6667 95.8333L50.75 95.8292L51.8208 95.8125L52.8792 95.7917L53.9208 95.7583L54.95 95.7125L55.9667 95.6625L56.9708 95.6042L57.9583 95.5375L58.9292 95.4625L59.8917 95.375L60.8333 95.2875L61.7667 95.1875L62.6833 95.0792L63.5833 94.9667L64.4667 94.85L65.3417 94.7208L66.1958 94.5917L67.0375 94.45L67.8625 94.3083L68.6708 94.1583L69.4667 94.0042L70.2458 93.8417L71.0083 93.675L71.7542 93.5083L72.4833 93.3333L73.2 93.1542L73.9 92.9708L74.5792 92.7833L75.2458 92.5917L75.8917 92.4L76.525 92.2042L77.1417 92.0042L77.7375 91.8L78.3167 91.5958L78.8833 91.3875L79.4292 91.1792L79.9542 90.9708L80.4667 90.7583L80.9583 90.5417L81.4333 90.3292L81.8917 90.1125L82.3333 89.8958L82.7542 89.6792L83.1542 89.4625L83.5375 89.2458L83.9042 89.025L84.25 88.8125L84.5792 88.5958L84.8875 88.3792L85.1792 88.1667L85.45 87.9542L85.7 87.7417L85.9333 87.5333L86.1458 87.325L86.2417 87.225L86.3375 87.1208L86.425 87.0208L86.5083 86.9208L86.5875 86.8208L86.6625 86.7208L86.7333 86.6208L86.7958 86.525L86.8542 86.425L86.9083 86.3292L86.9583 86.2333L87 86.1375L87.0417 86.0458L87.075 85.9542L87.1 85.8625L87.125 85.7708L87.1417 85.6792L87.1583 85.5917L87.1625 85.5042L87.1667 85.4167V68.2208L86.8458 68.45L86.5125 68.6708L86.1667 68.8958L85.8125 69.1167L85.45 69.3333L85.075 69.55L84.6875 69.7625L84.2917 69.9708L83.8875 70.1792L83.4708 70.3833L83.0458 70.5875L82.6083 70.7875L82.1667 70.9833L81.7125 71.1792L81.25 71.3708L80.775 71.5583L80.2958 71.7458L79.8042 71.9292L79.3042 72.1083L78.7958 72.2833L78.2792 72.4583L77.7542 72.6292L77.2208 72.7958L76.6792 72.9625L76.1292 73.1208L75.5708 73.2792L75.0083 73.4333L74.4333 73.5875L73.8542 73.7333L73.2625 73.8792L72.6667 74.0208L72.0667 74.1583L71.4542 74.2917L70.8375 74.4208L70.2125 74.5458L69.5833 74.6708L68.9458 74.7917L68.3042 74.9042L67.6542 75.0167L66.9958 75.125L66.3333 75.2292L65.6625 75.3292L64.9875 75.425L64.3083 75.5167L63.6208 75.6042L62.9292 75.6875L62.2333 75.7667L61.5292 75.8417L60.825 75.9125L60.1125 75.9792L59.3917 76.0417L58.6708 76.1L57.9417 76.1542L57.2125 76.2042L56.475 76.25L55.7333 76.2917L54.9875 76.325L54.2417 76.3583L53.4875 76.3833L52.7292 76.4042L51.9708 76.4208L51.2042 76.4333L50.4375 76.4417H48.8958L48.1292 76.4333L47.3625 76.4208L46.6042 76.4042L45.8458 76.3833L45.0917 76.3583L44.3458 76.325L43.6 76.2917L42.8583 76.25L42.125 76.2042L41.3917 76.1542L40.6625 76.1L39.9417 76.0417L39.225 75.9792L38.5125 75.9125L37.8042 75.8417L37.1 75.7667L36.4042 75.6875L35.7125 75.6042L35.025 75.5167L34.3458 75.425L33.6708 75.3292L33 75.2292L32.3375 75.125L31.6833 75.0167L31.0333 74.9042L30.3875 74.7917L29.75 74.6708L29.1208 74.5458L28.4958 74.4208L27.8792 74.2917L27.2708 74.1583L26.6667 74.0208L26.0708 73.8792L25.4833 73.7333L24.9 73.5875L24.3292 73.4333L23.7625 73.2792L23.2042 73.1208L22.6542 72.9625L22.1125 72.7958L21.5792 72.6292L21.0542 72.4583L20.5375 72.2833L20.0292 72.1083L19.5292 71.925L19.0417 71.7458L18.5583 71.5583L18.0875 71.3708L17.6208 71.1792L17.1667 70.9833L16.725 70.7875L16.2875 70.5875L15.8625 70.3833L15.4458 70.1792L15.0417 69.9708L14.6458 69.7625L14.2583 69.5458L13.8833 69.3333L13.5208 69.1167L13.1667 68.8958L12.8208 68.6708L12.4875 68.4458L12.1667 68.2208V85.4167ZM12.1667 61.8583V61.9042L12.1708 61.9917L12.1833 62.0792L12.2 62.1667L12.2208 62.2583L12.2458 62.35L12.275 62.4417L12.3125 62.5333L12.3542 62.625L12.4 62.7208L12.45 62.8167L12.5042 62.9125L12.5667 63.0125L12.6333 63.1083L12.7042 63.2083L12.7792 63.3083L12.8583 63.4083L12.9458 63.5083L13.0375 63.6083L13.1333 63.7125L13.2333 63.8125L13.45 64.0208L13.6833 64.2292L13.9375 64.4375L14.2125 64.65L14.5042 64.8625L14.8167 65.0792L15.1458 65.2917L15.4958 65.5083L15.8625 65.725L16.2458 65.9417L16.65 66.1583L17.075 66.375L17.5125 66.5917L17.9708 66.8042L18.4458 67.0167L18.9417 67.2333L19.4542 67.4417L19.9833 67.6542L20.5292 67.8625L21.0917 68.0667L21.6708 68.2708L22.2708 68.4708L22.8833 68.6708L23.5167 68.8667L24.1625 69.0583L24.8292 69.2458L25.5083 69.4333L26.2042 69.6167L26.9167 69.7917L27.65 69.9667L28.3917 70.1333L29.1542 70.3L29.9333 70.4583L30.725 70.6125L31.5333 70.7625L32.3542 70.9042L33.1958 71.0417L34.0458 71.175L34.9167 71.3L35.8 71.4167L36.7 71.5292L37.6125 71.6333L38.5375 71.7333L39.4792 71.825L40.4375 71.9083L41.4083 71.9833L42.3917 72.05L43.3917 72.1083L44.4042 72.1583L45.4292 72.2L46.4667 72.2333L47.5208 72.2583L48.5875 72.2708L49.6667 72.275L50.75 72.2708L51.8208 72.2583L52.8792 72.2333L53.9208 72.2L54.95 72.1583L55.9667 72.1083L56.9708 72.0458L57.9583 71.9792L58.9292 71.9042L59.8917 71.8208L60.8333 71.7292L61.7667 71.6292L62.6833 71.525L63.5833 71.4125L64.4667 71.2917L65.3417 71.1667L66.1958 71.0333L67.0375 70.8958L67.8625 70.75L68.6708 70.6L69.4667 70.4458L70.2458 70.2833L71.0083 70.1208L71.7542 69.95L72.4833 69.775L73.2 69.5958L73.9 69.4125L74.5792 69.225L75.2458 69.0375L75.8917 68.8417L76.525 68.6458L77.1417 68.4458L77.7375 68.2458L78.3167 68.0375L78.8833 67.8333L79.4292 67.625L79.9542 67.4125L80.4667 67.2L80.9583 66.9875L81.4333 66.7708L81.8917 66.5542L82.3333 66.3375L82.7542 66.1208L83.1542 65.9042L83.5375 65.6875L83.9042 65.4708L84.25 65.2542L84.5792 65.0375L84.8875 64.825L85.1792 64.6083L85.45 64.3958L85.7 64.1875L85.9333 63.975L86.1458 63.7708L86.2417 63.6667L86.3375 63.5667L86.425 63.4625L86.5083 63.3625L86.5875 63.2625L86.6625 63.1625L86.7333 63.0625L86.7958 62.9667L86.8542 62.8708L86.9083 62.7708L86.9583 62.6792L87 62.5833L87.0417 62.4875L87.075 62.3958L87.1 62.3042L87.125 62.2125L87.1417 62.125L87.1583 62.0333L87.1625 61.9458L87.1667 61.8583V44.6125L86.8458 44.8375L86.5125 45.0625L86.1667 45.2875L85.8125 45.5042L85.45 45.725L85.075 45.9375L84.6875 46.15L84.2917 46.3625L83.8875 46.5708L83.4708 46.775L83.0458 46.9792L82.6083 47.1792L82.1667 47.375L81.7125 47.5708L81.25 47.7625L80.775 47.95L80.2958 48.1333L79.8042 48.3167L79.3042 48.5L78.7958 48.675L78.2792 48.85L77.7542 49.0208L77.2208 49.1875L76.6792 49.35L76.1292 49.5125L75.5708 49.6708L75.0083 49.825L74.4333 49.975L73.8542 50.125L73.2625 50.2708L72.6667 50.4083L72.0667 50.5458L71.4542 50.6833L70.8375 50.8125L70.2125 50.9375L69.5833 51.0625L68.9458 51.1792L68.3042 51.2958L67.6542 51.4083L66.9958 51.5167L66.3333 51.6208L65.6625 51.7208L64.9875 51.8167L64.3083 51.9083L63.6208 51.9958L62.9292 52.0792L62.2333 52.1583L61.5292 52.2333L60.825 52.3042L60.1125 52.3708L59.3917 52.4333L58.6708 52.4917L57.9417 52.5458L57.2125 52.5958L56.475 52.6417L55.7333 52.6792L54.9875 52.7167L54.2417 52.7458L53.4875 52.775L52.7292 52.7958L51.9708 52.8125L51.2042 52.825L50.4375 52.8333H48.8958L48.1292 52.825L47.3625 52.8125L46.6042 52.7958L45.8458 52.775L45.0917 52.7458L44.3458 52.7167L43.6 52.6792L42.8583 52.6417L42.125 52.5958L41.3917 52.5458L40.6625 52.4917L39.9417 52.4333L39.225 52.3708L38.5125 52.3042L37.8042 52.2333L37.1 52.1583L36.4042 52.0792L35.7125 51.9958L35.025 51.9083L34.3458 51.8167L33.6708 51.7208L33 51.6208L32.3375 51.5167L31.6833 51.4083L31.0333 51.2958L30.3875 51.1792L29.75 51.0625L29.1208 50.9375L28.4958 50.8125L27.8792 50.6833L27.2708 50.5458L26.6667 50.4083L26.0708 50.2708L25.4833 50.125L24.9 49.975L24.3292 49.825L23.7625 49.6708L23.2042 49.5125L22.6542 49.35L22.1125 49.1875L21.5792 49.0208L21.0542 48.85L20.5375 48.675L20.0292 48.4958L19.5292 48.3167L19.0417 48.1333L18.5583 47.95L18.0875 47.7583L17.6208 47.5667L17.1667 47.375L16.725 47.1792L16.2875 46.9792L15.8625 46.775L15.4458 46.5708L15.0417 46.3625L14.6458 46.15L14.2583 45.9375L13.8833 45.725L13.5208 45.5042L13.1667 45.2875L12.8208 45.0625L12.4875 44.8375L12.1667 44.6125V61.8583ZM12.1667 38.25V38.2958L12.1708 38.3792L12.1833 38.4708L12.2 38.5583L12.2208 38.65L12.2458 38.7375L12.275 38.8292L12.3125 38.925L12.3542 39.0167L12.4 39.1125L12.45 39.2083L12.5042 39.3042L12.5667 39.4L12.6333 39.5L12.7042 39.6L12.7792 39.6958L12.8583 39.7958L12.9458 39.9L13.0375 40L13.1333 40.1L13.2333 40.2042L13.45 40.4125L13.6833 40.6208L13.9375 40.8292L14.2125 41.0417L14.5042 41.2542L14.8167 41.4708L15.1458 41.6833L15.4958 41.9L15.8625 42.1167L16.2458 42.3333L16.65 42.55L17.075 42.7667L17.5125 42.9792L17.9708 43.1958L18.4458 43.4083L18.9417 43.6208L19.4542 43.8333L19.9833 44.0417L20.5292 44.25L21.0917 44.4583L21.6708 44.6625L22.2708 44.8625L22.8833 45.0625L23.5167 45.2583L24.1625 45.45L24.8292 45.6375L25.5083 45.825L26.2042 46.0042L26.9167 46.1833L27.65 46.3583L28.3917 46.525L29.1542 46.6917L29.9333 46.85L30.725 47.0042L31.5333 47.1542L32.3542 47.2958L33.1958 47.4333L34.0458 47.5667L34.9167 47.6917L35.8 47.8083L36.7 47.9208L37.6125 48.025L38.5375 48.125L39.4792 48.2125L40.4375 48.2958L41.4083 48.3708L42.3917 48.4417L43.3917 48.5L44.4042 48.55L45.4292 48.5917L46.4667 48.625L47.5208 48.65L48.5875 48.6625L49.6667 48.6667L50.75 48.6625L51.8208 48.65L52.8792 48.625L53.9208 48.5917L54.95 48.55L55.9667 48.4958L56.9708 48.4375L57.9583 48.3708L58.9292 48.2958L59.8917 48.2125L60.8333 48.1208L61.7667 48.0208L62.6833 47.9167L63.5833 47.8042L64.4667 47.6833L65.3417 47.5583L66.1958 47.425L67.0375 47.2875L67.8625 47.1417L68.6708 46.9917L69.4667 46.8375L70.2458 46.675L71.0083 46.5125L71.7542 46.3417L72.4833 46.1667L73.2 45.9875L73.9 45.8042L74.5792 45.6167L75.2458 45.4292L75.8917 45.2333L76.525 45.0375L77.1417 44.8375L77.7375 44.6333L78.3167 44.4292L78.8833 44.225L79.4292 44.0125L79.9542 43.8042L80.4667 43.5917L80.9583 43.375L81.4333 43.1625L81.8917 42.9458L82.3333 42.7292L82.7542 42.5125L83.1542 42.2958L83.5375 42.0792L83.9042 41.8625L84.25 41.6458L84.5792 41.4292L84.8875 41.2125L85.1792 41L85.45 40.7875L85.7 40.575L85.9333 40.3667L86.1458 40.1625L86.2417 40.0583L86.3375 39.9542L86.425 39.8542L86.5083 39.7542L86.5875 39.6542L86.6625 39.5542L86.7333 39.4542L86.7958 39.3583L86.8542 39.2583L86.9083 39.1625L86.9583 39.0667L87 38.975L87.0417 38.8792L87.075 38.7875L87.1 38.6958L87.125 38.6042L87.1417 38.5125L87.1583 38.425L87.1625 38.3375L87.1667 38.25V20.9458L86.8458 21.1708L86.5125 21.3958L86.1667 21.6167L85.8125 21.8375L85.45 22.0583L85.075 22.2708L84.6875 22.4833L84.2917 22.6958L83.8875 22.9042L83.4708 23.1083L83.0458 23.3083L82.6083 23.5083L82.1667 23.7083L81.7125 23.9L81.25 24.0917L80.775 24.2833L80.2958 24.4667L79.8042 24.65L79.3042 24.8292L78.7958 25.0083L78.2792 25.1833L77.7542 25.3542L77.2208 25.5208L76.6792 25.6833L76.1292 25.8458L75.5708 26.0042L75.0083 26.1583L74.4333 26.3083L73.8542 26.4583L73.2625 26.6L72.6667 26.7417L72.0667 26.8792L71.4542 27.0125L70.8375 27.1458L70.2125 27.2708L69.5833 27.3958L68.9458 27.5125L68.3042 27.6292L67.6542 27.7417L66.9958 27.85L66.3333 27.95L65.6625 28.05L64.9875 28.1458L64.3083 28.2417L63.6208 28.3292L62.9292 28.4125L62.2333 28.4917L61.5292 28.5667L60.825 28.6375L60.1125 28.7042L59.3917 28.7667L58.6708 28.825L57.9417 28.8792L57.2125 28.9292L56.475 28.9708L55.7333 29.0125L54.9875 29.05L54.2417 29.0792L53.4875 29.1042L52.7292 29.1292L51.9708 29.1458L51.2042 29.1583L50.4375 29.1625L49.6667 29.1667L48.8958 29.1625L48.1292 29.1583L47.3625 29.1458L46.6042 29.1292L45.8458 29.1042L45.0917 29.0792L44.3458 29.05L43.6 29.0125L42.8583 28.9708L42.125 28.9292L41.3917 28.8792L40.6625 28.825L39.9417 28.7667L39.225 28.7042L38.5125 28.6375L37.8042 28.5667L37.1 28.4917L36.4042 28.4125L35.7125 28.3292L35.025 28.2417L34.3458 28.1458L33.6708 28.05L33 27.95L32.3375 27.85L31.6833 27.7417L31.0333 27.6292L30.3875 27.5125L29.75 27.3958L29.1208 27.2708L28.4958 27.1458L27.8792 27.0125L27.2708 26.8792L26.6667 26.7417L26.0708 26.6L25.4833 26.4583L24.9 26.3083L24.3292 26.1583L23.7625 26.0042L23.2042 25.8458L22.6542 25.6833L22.1125 25.5208L21.5792 25.35L21.0542 25.1792L20.5375 25.0083L20.0292 24.8292L19.5292 24.65L19.0417 24.4667L18.5583 24.2833L18.0875 24.0917L17.6208 23.9L17.1667 23.7083L16.725 23.5083L16.2875 23.3083L15.8625 23.1083L15.4458 22.9L15.0417 22.6958L14.6458 22.4833L14.2583 22.2708L13.8833 22.0542L13.5208 21.8375L13.1667 21.6167L12.8208 21.3958L12.4875 21.1708L12.1667 20.9458V38.25ZM48.5833 4.17083L47.5125 4.1875L46.4542 4.20833L45.4125 4.24167L44.3833 4.2875L43.3667 4.3375L42.3625 4.39583L41.375 4.4625L40.4042 4.5375L39.4417 4.625L38.5 4.71667L37.5667 4.8125L36.65 4.92083L35.75 5.03333L34.8667 5.15L33.9917 5.27917L33.1375 5.4125L32.2958 5.55L31.4708 5.69167L30.6625 5.84167L29.8667 6L29.0875 6.15833L28.325 6.325L27.5792 6.49583L26.85 6.67083L26.1333 6.85L25.4333 7.02917L24.7542 7.21667L24.0875 7.40833L23.4417 7.6L22.8083 7.8L22.1917 8L21.5958 8.2L21.0167 8.40417L20.45 8.6125L19.9042 8.82083L19.3792 9.03333L18.8667 9.24583L18.375 9.45833L17.9 9.675L17.4417 9.89167L17 10.1083L16.5792 10.325L16.1792 10.5417L15.7958 10.7583L15.4292 10.975L15.0833 11.1917L14.7542 11.4083L14.4458 11.6208L14.1542 11.8375L13.8833 12.05L13.6333 12.2583L13.4 12.4667L13.1875 12.675L13.0917 12.7792L12.9958 12.8792L12.9083 12.9792L12.825 13.0833L12.7458 13.1833L12.6708 13.2833L12.6 13.3792L12.5375 13.4792L12.4792 13.575L12.425 13.6708L12.375 13.7667L12.3333 13.8625L12.2917 13.9542L12.2583 14.0458L12.2333 14.1417L12.2083 14.2292L12.1917 14.3208L12.175 14.4083L12.1708 14.4958L12.1667 14.5833L12.1708 14.6708L12.175 14.7583L12.1917 14.8458L12.2083 14.9375L12.2333 15.025L12.2583 15.1208L12.2917 15.2125L12.3333 15.3042L12.375 15.4L12.425 15.4958L12.4792 15.5917L12.5375 15.6875L12.6 15.7875L12.6708 15.8833L12.7458 15.9833L12.825 16.0833L12.9083 16.1875L12.9958 16.2875L13.0917 16.3875L13.1875 16.4917L13.4 16.7L13.6333 16.9083L13.8833 17.1167L14.1542 17.3292L14.4458 17.5458L14.7542 17.7583L15.0833 17.975L15.4292 18.1917L15.7958 18.4083L16.1792 18.625L16.5792 18.8417L17 19.0583L17.4417 19.275L17.9 19.4917L18.375 19.7083L18.8667 19.9208L19.3792 20.1333L19.9042 20.3458L20.45 20.5542L21.0167 20.7625L21.5958 20.9667L22.1917 21.1667L22.8083 21.3667L23.4417 21.5667L24.0875 21.7583L24.7542 21.95L25.4333 22.1375L26.1333 22.3167L26.85 22.4958L27.5792 22.6708L28.325 22.8417L29.0875 23.0083L29.8667 23.1667L30.6625 23.325L31.4708 23.475L32.2958 23.6167L33.1375 23.7542L33.9917 23.8875L34.8667 24.0167L35.75 24.1333L36.65 24.2458L37.5667 24.3542L38.5 24.45L39.4417 24.5417L40.4042 24.6292L41.375 24.7042L42.3625 24.7708L43.3667 24.8292L44.3833 24.8792L45.4125 24.925L46.4542 24.9583L47.5125 24.9792L48.5833 24.9958L49.6667 25L50.75 24.9958L51.8208 24.9792L52.8792 24.9583L53.9208 24.925L54.95 24.8792L55.9667 24.8292L56.9708 24.7708L57.9583 24.7042L58.9292 24.6292L59.8917 24.5417L60.8333 24.45L61.7667 24.3542L62.6833 24.2458L63.5833 24.1333L64.4667 24.0167L65.3417 23.8875L66.1958 23.7542L67.0375 23.6167L67.8625 23.475L68.6708 23.325L69.4667 23.1667L70.2458 23.0083L71.0083 22.8417L71.7542 22.6708L72.4833 22.4958L73.2 22.3167L73.9 22.1375L74.5792 21.95L75.2458 21.7583L75.8917 21.5667L76.525 21.3667L77.1417 21.1667L77.7375 20.9667L78.3167 20.7625L78.8833 20.5542L79.4292 20.3458L79.9542 20.1333L80.4667 19.9208L80.9583 19.7083L81.4333 19.4917L81.8917 19.275L82.3333 19.0583L82.7542 18.8417L83.1542 18.625L83.5375 18.4083L83.9042 18.1917L84.25 17.975L84.5792 17.7583L84.8875 17.5458L85.1792 17.3292L85.45 17.1167L85.7 16.9083L85.9333 16.7L86.1458 16.4917L86.2417 16.3875L86.3375 16.2875L86.425 16.1875L86.5083 16.0833L86.5875 15.9833L86.6625 15.8833L86.7333 15.7875L86.7958 15.6875L86.8542 15.5917L86.9083 15.4958L86.9583 15.4L87 15.3042L87.0417 15.2125L87.075 15.1208L87.1 15.025L87.125 14.9375L87.1417 14.8458L87.1583 14.7583L87.1625 14.6708L87.1667 14.5833L87.1625 14.4958L87.1583 14.4083L87.1417 14.3208L87.125 14.2292L87.1 14.1417L87.075 14.0458L87.0417 13.9542L87 13.8625L86.9583 13.7667L86.9083 13.6708L86.8542 13.575L86.7958 13.4792L86.7333 13.3792L86.6625 13.2833L86.5875 13.1833L86.5083 13.0833L86.425 12.9792L86.3375 12.8792L86.2417 12.7792L86.1458 12.675L85.9333 12.4667L85.7 12.2583L85.45 12.05L85.1792 11.8375L84.8875 11.6208L84.5792 11.4083L84.25 11.1917L83.9042 10.975L83.5375 10.7583L83.1542 10.5417L82.7542 10.325L82.3333 10.1083L81.8917 9.89167L81.4333 9.675L80.9583 9.45833L80.4667 9.24583L79.9542 9.03333L79.4292 8.82083L78.8833 8.6125L78.3167 8.40417L77.7375 8.2L77.1417 8L76.525 7.8L75.8917 7.6L75.2458 7.40833L74.5792 7.21667L73.9 7.02917L73.2 6.85L72.4833 6.67083L71.7542 6.49583L71.0083 6.325L70.2458 6.15833L69.4667 6L68.6708 5.84167L67.8625 5.69167L67.0375 5.55L66.1958 5.4125L65.3417 5.27917L64.4667 5.15L63.5833 5.03333L62.6833 4.92083L61.7667 4.8125L60.8333 4.71667L59.8917 4.625L58.9292 4.5375L57.9583 4.4625L56.9708 4.39583L55.9667 4.3375L54.95 4.2875L53.9208 4.24167L52.8792 4.20833L51.8208 4.1875L50.75 4.17083L49.6667 4.16667L48.5833 4.17083Z" fill="#333333"/>
</svg>
