<svg width="62" height="56" viewBox="0 0 62 56" fill="none" xmlns="http://www.w3.org/2000/svg">
<path d="M18.5276 49.2881C16.1664 47.429 13.6468 45.6474 11.9253 43.1371C8.30209 38.7105 5.5132 33.5863 3.60651 28.2005C2.45349 24.6982 2.05902 20.9434 0.571936 17.577C-0.981636 15.1312 0.839513 12.4594 3.5161 11.6824C4.70682 11.4527 6.80203 10.3276 4.27302 11.1326C2.0051 12.797 1.78658 9.62041 4.11166 9.41916C5.69848 9.20858 6.28269 7.90899 5.73943 6.73924C4.03544 5.6267 9.86985 4.40623 6.9338 2.74674C3.87733 -0.554776 11.211 -1.19017 9.40119 2.5597C8.9686 5.44289 14.5273 2.0302 13.2365 5.36012C14.548 6.95956 18.1461 5.72488 18.0557 7.96742C19.9656 8.09888 20.6212 9.70602 22.4123 9.82977C24.2716 10.6697 27.6386 11.3306 28.2703 13.4259C26.4272 14.8857 22.1606 10.41 21.9546 14.4516C22.5121 20.4233 22.3698 26.5747 24.5522 32.2612C25.5844 35.7039 28.0882 38.4139 30.3481 41.0958C32.5114 43.7218 35.4414 45.5715 38.4281 47.128C41.0475 48.3643 43.8713 49.1835 46.7266 49.6987C47.8841 48.8126 49.9287 45.5176 51.734 46.906C51.8212 48.4689 48.1505 50.171 51.5617 49.9982C53.5665 49.3928 54.9555 51.5481 56.6055 49.6034C58.1259 51.4057 62.9244 48.4527 61.8427 52.1364C60.3796 53.081 58.2463 52.5101 56.7815 53.8101C54.3664 52.6022 52.4435 54.8894 49.7689 54.6009C46.7996 55.1332 43.7776 55.3475 40.7674 55.3519C35.8277 54.962 30.7839 54.7973 26.0851 53.0761C23.4373 52.306 20.8543 50.7971 18.5276 49.2881ZM22.699 51.0981C25.2835 52.2156 27.8113 53.3946 30.6444 53.7513C35.1389 54.3757 39.7806 55.3394 44.2909 54.4613C42.2496 53.5391 40.1386 54.8196 38.105 53.802C35.6664 54.3266 33.0486 53.6673 30.5682 53.3423C27.7493 52.0857 24.7058 51.2219 22.0657 49.5892C18.7652 48.3833 23.7713 51.1363 24.6628 51.3599C26.7248 52.5308 22.3949 50.7589 21.7835 50.2725C20.056 49.3023 19.8359 49.5052 21.6129 50.4895C21.9704 50.6989 22.324 50.9192 22.699 51.0981ZM17.78 47.6193C20.2855 48.5481 17.7691 45.8568 16.6225 46.0122C16.1141 45.1293 14.6794 44.5714 15.6913 44.0975C13.8718 44.73 13.7846 41.6931 12.9296 42.1276C11.0038 41.519 12.1803 39.3633 9.88566 38.0385C9.67647 36.6436 7.60679 35.4345 6.94799 33.3311C6.65649 32.2535 4.60871 29.1613 5.86632 32.0393C6.93663 34.8097 8.81981 37.1841 10.3876 39.5536C11.6038 41.8103 13.0419 44.1705 15.2575 45.578C16.0051 46.2958 16.7255 47.3941 17.78 47.6193ZM10.5651 39.6899C10.6519 39.311 11.0229 40.5091 10.5651 39.6899V39.6899ZM20.7813 48.7319C21.3356 48.4831 19.9831 48.4182 20.7813 48.7319V48.7319ZM22.1399 49.2281C21.9992 48.5432 21.5192 49.6115 22.1399 49.2281V49.2281ZM23.8427 49.9381C24.6519 49.166 22.5932 49.4512 23.8427 49.9381V49.9381ZM26.7597 51.5656C27.2523 50.8381 25.1838 51.2917 26.7597 51.5656V51.5656ZM21.1584 47.6575C22.4156 46.8427 19.5318 47.6461 21.1584 47.6575V47.6575ZM22.4346 48.2945C22.3982 47.8648 21.9802 48.4876 22.4346 48.2945V48.2945ZM28.8152 52.2805C29.8413 52.9289 34.8065 53.7006 31.6977 52.5466C31.1763 52.6562 25.933 51.0616 28.8152 52.2805ZM18.6861 44.3843C18.5864 43.9534 17.0928 43.9072 18.6861 44.3843V44.3843ZM21.6554 46.1185C22.4298 45.578 20.0512 45.7014 21.6554 46.1185V46.1185ZM24.1544 47.651C25.2645 47.2326 22.3556 47.231 24.1544 47.651V47.651ZM17.4759 43.0673C18.6796 43.9912 22.3317 43.1862 19.3194 42.5159C17.9495 41.7852 14.8614 41.2845 16.9663 42.9565L17.4759 43.0673ZM25.8475 48.1805C26.3494 47.326 23.7442 47.692 25.8475 48.1805V48.1805ZM23.3039 46.1578C26.2464 46.99 20.8288 44.2939 22.5774 45.8503L22.9653 46.0264L23.3039 46.1578ZM28.4037 49.1076C31.1909 49.1344 25.8856 48.7225 28.4037 49.1076V49.1076ZM16.404 41.4537C16.2946 40.9339 15.7168 41.4967 16.404 41.4537V41.4537ZM33.1183 51.7542C33.1925 50.8162 32.2089 52.4533 33.1183 51.7542V51.7542ZM21.1612 44.3685C20.9918 43.8739 20.2904 44.3478 21.1612 44.3685V44.3685ZM16.6684 41.1275C18.2681 41.0309 14.4766 40.4223 16.6684 41.1275V41.1275ZM11.3456 37.6847C11.1461 36.9163 9.60511 36.3044 11.3456 37.6847V37.6847ZM25.3184 46.5591C25.0257 46.2244 25.1806 46.6317 25.3184 46.5591V46.5591ZM34.0143 51.9003C33.9875 51.3883 33.5407 52.0934 34.0143 51.9003V51.9003ZM24.5489 45.7635C24.7058 45.1041 23.1839 45.5634 24.5489 45.7635V45.7635ZM18.0699 41.6537C19.261 41.5267 16.1616 40.8483 18.0699 41.6537V41.6537ZM29.0292 48.4689C30.8852 47.7333 27.2206 48.1107 29.0292 48.4689V48.4689ZM23.3294 44.597C25.4672 44.8725 20.7846 43.1403 22.8591 44.4416L23.3294 44.597ZM30.76 49.1693C32.7571 47.976 32.0983 51.9668 34.1477 49.5068C36.1683 48.0299 32.4023 51.3327 34.892 49.7702C36.6941 48.5639 39.3545 50.3423 41.0349 50.9208C42.2431 50.862 43.4184 51.9668 44.6582 51.2945C47.0433 50.651 39.993 50.3406 41.8409 49.2009C39.6585 49.8367 38.0466 48.4434 36.9726 47.044C34.5243 46.478 31.6945 45.2259 30.4717 43.0564C29.973 42.2432 31.1909 43.172 30.0412 41.8408C28.5666 40.5282 27.8304 39.0367 26.8404 37.4409C25.6573 36.81 25.5179 34.9509 25.3991 37.3792C25.4088 35.8463 23.9708 34.8145 23.6193 35.2426C23.6128 33.7669 25.1587 34.507 24.077 33.4151C23.8443 31.8855 23.0776 30.2913 22.8478 28.5637C22.4902 27.7315 22.7971 25.9487 21.6254 27.8329C21.1993 29.8251 21.4843 25.3859 22.148 26.8486C23.0189 25.3559 21.8342 25.5316 21.7868 25.7377C22.354 24.4779 22.1464 22.6897 21.638 23.3714C21.9404 22.0353 22.1164 18.455 21.1868 19.0904C21.7503 17.6926 22.2559 12.6967 19.8071 14.6021C18.8159 14.6163 17.0977 14.962 16.2868 15.3661C18.8317 16.7704 16.0302 15.8733 14.9927 15.6497C14.8581 16.9493 13.832 16.3882 12.5493 16.4008C14.5987 16.6543 11.5515 18.4976 10.3782 17.7815C8.85144 18.5106 11.6942 20.3332 10.4083 20.8972C10.5668 21.7452 8.0706 20.59 8.2656 22.5522C6.7846 21.9274 8.06289 24.8787 8.804 23.8802C11.3237 24.5635 10.5777 26.1183 10.641 27.5968C10.2307 28.4574 8.61386 25.5729 10.2814 25.706C8.96536 23.5678 8.8263 24.9327 7.73329 25.9263C7.4799 25.9978 10.5206 27.34 8.61224 28.0025C10.2911 28.2626 10.3401 29.7334 10.6823 30.6638C11.691 31.7159 11.4834 29.5017 12.692 30.7668C11.927 29.6397 8.64386 27.5919 11.2872 28.2484C11.273 27.1152 10.8088 26.2006 11.6196 26.2225C12.4228 24.7692 10.7788 29.8077 12.5874 27.9599C13.0877 27.7412 13.213 26.5049 14.1126 28.0772C15.4188 29.3642 14.5845 30.2958 12.741 29.1167C13.0702 30.2374 15.2068 30.6366 14.8046 32.3882C15.2303 33.9288 15.8259 33.3612 16.3452 33.2723C16.7523 34.7687 16.9838 33.6687 17.0028 32.9554C18.8665 33.3551 18.4295 34.4579 19.0137 35.2284C20.2981 35.8082 17.1751 31.2959 19.3798 33.8716C21.6996 35.9685 20.2506 36.8432 18.1684 36.5073C19.486 36.401 19.9101 38.2905 21.5589 38.224C23.0618 38.9401 24.0803 41.6886 21.4892 40.544C20.5912 39.7325 17.4095 38.7324 20.0086 40.2746C22.4063 41.3871 24.313 42.0513 26.6267 43.4479C28.2816 44.6302 28.9972 45.985 29.6244 46.2532C28.2326 46.9186 25.4311 45.7221 27.5117 45.3561C26.2132 45.12 24.7532 44.4622 25.9963 46.0803C27.054 46.9649 29.7415 46.8711 30.2248 46.9709C29.8161 47.8713 29.1148 47.9427 30.2406 48.0125C28.9846 48.6828 30.6444 48.7874 30.76 49.1693ZM28.1912 41.9089C27.4262 41.1084 27.2283 39.6108 28.055 40.9132C28.4795 41.0844 29.4123 43.3623 28.1912 41.9089ZM36.5579 47.2278C37.0347 47.1961 36.5721 47.5905 36.5579 47.2278V47.2278ZM26.9847 39.9467C26.9543 38.7372 27.26 40.88 26.9847 39.9467V39.9467ZM26.1532 38.8277C25.1903 36.9686 27.3646 39.354 26.1532 38.8277V38.8277ZM16.0744 31.8668C16.64 31.7159 16.3533 32.8333 16.0744 31.8668V31.8668ZM24.0961 36.2172C24.4427 34.9127 24.5031 37.3111 24.0961 36.2172V36.2172ZM18.4295 32.2738C18.0306 31.5544 19.2643 32.9493 18.4295 32.2738V32.2738ZM23.2913 33.8334C22.3807 31.7922 23.9375 32.7177 23.494 34.1678L23.2913 33.8334ZM14.906 28.237C14.4989 27.5668 13.8259 25.6014 14.0428 25.0009C14.2374 25.9787 16.119 29.2072 14.9644 26.3386C13.6897 23.9342 16.4896 27.118 16.7778 27.7189C16.9124 28.315 15.9905 27.5558 16.6144 28.9552C15.476 27.3623 15.9431 29.8349 14.906 28.237ZM12.3149 26.4494C12.4212 24.8913 12.9073 27.5177 12.3149 26.4494V26.4494ZM13.4805 26.8518C14.0364 25.676 14.4227 28.4906 13.4805 26.8518V26.8518ZM10.6758 24.6807C9.71133 23.7199 9.01279 22.8358 10.7216 24.0847C11.3788 24.1098 9.25848 22.0734 10.8802 23.4379C12.5841 23.7487 11.721 26.2355 10.6758 24.6807ZM12.1487 24.6426C12.7094 24.0863 12.4463 25.1895 12.1487 24.6426V24.6426ZM13.0561 24.9327C12.2055 23.3397 14.087 25.6014 13.0561 24.9327V24.9327ZM11.254 23.2099C8.44926 20.7101 14.7775 24.5156 11.7117 23.6725L11.254 23.2099ZM19.291 27.882C18.0764 27.1545 18.9679 22.7551 19.383 25.7632C20.5628 25.381 19.3178 27.318 20.1967 27.299C20.0593 28.5207 19.6648 28.9601 19.291 27.882ZM22.2636 29.6413C22.3823 28.315 22.5137 30.5482 22.2636 29.6413V29.6413ZM21.7475 29.1293C21.8804 28.5637 21.76 29.7967 21.7475 29.1293V29.1293ZM11.8033 22.3887C10.0012 19.9003 17.0405 24.9055 12.9579 23.0196C12.5318 22.9072 12.0174 22.8675 11.8033 22.3887ZM17.5282 25.4257C17.3576 23.3304 17.9085 25.7726 17.5282 25.4257V25.4257ZM21.874 28.2164C22.2096 27.0231 21.8995 29.0059 21.874 28.2164V28.2164ZM12.0806 21.4393C13.1513 21.2096 16.5179 23.3207 13.4266 22.0418C13.0832 21.6612 12.3498 21.834 12.0806 21.4393ZM21.2768 26.0262C21.3911 23.8834 21.9169 24.7473 21.2816 26.3337L21.2768 26.0262ZM12.8773 20.6931C13.3143 20.0524 11.7178 17.7973 13.1067 19.8845C13.7072 20.3616 14.844 20.6834 13.8401 20.8846C15.4188 22.2779 13.4554 21.2619 12.8773 20.6931ZM20.8223 25.3575C21.1235 22.9166 21.0887 26.7869 20.8223 25.3575V25.3575ZM11.9651 18.4392C12.2991 18.2964 12.1422 18.8843 11.9651 18.4392V18.4392ZM14.038 19.6739C14.5715 18.5532 15.0215 20.9227 14.038 19.6739V19.6739ZM19.8833 22.9275C19.8785 22.4982 19.994 23.5536 19.8833 22.9275V22.9275ZM19.5444 22.1781C18.7336 20.1746 20.2997 23.2383 19.5444 22.1781V22.1781ZM19.047 20.8639C18.9111 20.0366 19.5095 21.9038 19.047 20.8639V20.8639ZM19.8578 19.5453C19.3003 18.5642 20.5612 15.2184 20.7023 17.2934C20.1144 18.9099 20.5328 19.8134 20.9411 17.6452C21.6984 15.9398 20.7781 21.0132 19.8578 19.5453ZM20.6909 14.5705C20.9334 14.2722 20.7449 14.9299 20.6909 14.5705V14.5705ZM19.2991 42.0103C18.9695 41.7219 19.3417 42.1925 19.2991 42.0103V42.0103ZM22.1654 43.4605C23.76 43.8711 23.7523 43.213 22.311 43.0166C21.5366 42.2956 19.0899 41.53 21.28 42.9277C21.4243 43.2957 21.8821 43.286 22.1654 43.4605ZM16.5054 39.6976C17.3827 40.3541 19.8136 41.5551 17.7565 39.9484C18.4502 39.1414 16.4292 38.7121 17.0993 38.1716C15.3937 37.1268 15.7529 37.2206 16.9489 37.2538C14.8995 36.3361 17.2449 36.4058 17.1342 35.9352C16.344 35.7798 13.2081 34.5402 15.0532 36.0366C13.1781 35.0807 14.6064 36.3933 14.0396 36.2553C12.1216 35.7323 15.7468 37.7168 13.7355 37.2238C14.8346 38.0954 16.6955 39.4586 14.1993 38.1461C13.8718 38.62 15.986 39.3381 16.5054 39.6976ZM19.5031 41.422C23.1474 42.5966 17.7151 39.9845 19.5031 41.422V41.422ZM34.849 50.7257C34.8965 50.0014 34.3516 51.3436 34.849 50.7257V50.7257ZM36.4265 51.3899C37.2674 50.5751 36.4614 52.6895 37.82 51.1903C37.8341 50.1171 37.779 49.4833 36.2587 50.7874C35.8387 51.0207 35.6522 52.0078 36.4265 51.3899ZM11.3886 35.6532C11.1303 34.6372 9.57836 34.6417 11.3886 35.6532V35.6532ZM13.0719 36.7576C12.4463 35.7197 10.8404 35.8179 13.0719 36.7576V36.7576ZM22.6548 42.5411C23.5909 43.3732 26.9514 43.1513 23.7904 42.6441C23.3229 41.9515 20.8195 42.1179 22.6548 42.5411ZM35.8261 50.6831C37.2657 49.4736 34.431 51.2219 35.8261 50.6831V50.6831ZM38.8209 52.7418C38.8303 52.3535 38.2002 52.9114 38.8209 52.7418V52.7418ZM38.8258 52.1981C40.4203 50.5086 37.2816 52.2979 38.8258 52.1981V52.1981ZM7.24556 32.1821C5.887 30.2422 6.40148 29.3703 5.09035 27.7855C4.84142 26.5731 2.84148 23.8246 4.05612 26.7362C5.16778 28.4399 5.49739 31.0772 7.24556 32.1821ZM38.3251 51.6609C41.2599 49.7637 37.1218 50.8352 38.3251 51.6609V51.6609ZM40.5647 52.5389C42.0343 51.2771 39.635 52.2756 40.5647 52.5389V52.5389ZM10.8895 33.5084C11.3095 32.8824 9.80336 33.4277 10.8895 33.5084V33.5084ZM40.0972 51.9397C41.5194 51.0223 39.7696 51.1631 39.8394 52.0236L40.0972 51.9397ZM20.7955 39.7642C20.7465 39.143 20.0435 39.8165 20.7955 39.7642V39.7642ZM21.9879 40.4507C21.608 39.6834 21.4053 40.5712 21.9879 40.4507V40.4507ZM42.3793 52.5596C44.2021 51.2438 41.2758 52.3073 41.9978 52.81L42.3793 52.5596ZM41.6812 52.2221C43.1666 50.9776 40.1146 52.7735 41.6812 52.2221V52.2221ZM45.2473 54.5977C46.2438 53.9302 44.0359 54.3822 45.2473 54.5977V54.5977ZM11.8033 33.0569C13.1384 33.3563 17.1419 36.3486 14.7807 33.2646C13.5709 32.9063 14.2962 29.9472 13.0625 30.4702C13.8908 31.8555 13.7432 32.4434 12.0044 31.5718C9.8208 30.5035 10.7772 32.0997 11.2049 32.5403C10.6219 32.6734 11.9744 33.0459 11.8033 33.0569ZM5.71753 28.2468C5.95633 27.256 3.51448 22.8009 4.56452 26.0136C4.94278 26.6871 4.90345 27.9628 5.71753 28.2468ZM16.8885 35.1395C16.1997 34.5642 16.8553 35.0572 16.8885 35.1395V35.1395ZM18.5815 35.5343C18.5815 34.4851 16.7097 35.1079 18.5815 35.5343V35.5343ZM33.2622 44.795C32.9821 44.0784 32.1554 44.7791 33.2622 44.795V44.795ZM33.9668 45.3098C33.8622 44.909 33.5598 45.3877 33.9668 45.3098V45.3098ZM39.7854 48.979C40.3445 48.5655 39.0869 48.9254 39.7854 48.979V48.979ZM8.75657 29.0234C10.3576 28.4034 7.04123 28.5811 8.75657 29.0234V29.0234ZM31.9697 43.6585C31.9511 42.6218 30.9485 43.9169 31.9697 43.6585V43.6585ZM8.12452 27.5477C9.15226 27.2008 7.17259 27.3197 8.12452 27.5477V27.5477ZM11.108 28.9946C11.0906 28.6542 10.793 29.1248 11.108 28.9946V28.9946ZM47.5091 51.3343C48.8312 51.0665 51.8451 52.0078 52.3312 50.9841C50.7253 50.9444 46.7773 49.8493 46.5904 51.2438L46.9419 51.2994L47.5091 51.3343ZM12.0567 29.234C12.0806 28.1831 11.2381 29.1946 12.0567 29.234V29.234ZM4.2114 23.7869C3.85503 21.7849 2.85567 23.4838 4.2114 23.7869V23.7869ZM6.0816 24.2575C6.10552 23.614 4.36951 23.6789 6.0816 24.2575V24.2575ZM7.1507 24.7838C6.84177 24.533 6.90988 25.099 7.1507 24.7838V24.7838ZM13.8795 29.1025C14.1965 28.8108 13.129 28.887 13.8795 29.1025V29.1025ZM6.43959 23.5982C6.25755 22.086 4.2714 23.3714 6.43959 23.5982V23.5982ZM2.60228 21.1065C2.54836 20.4091 2.22848 21.3695 2.60228 21.1065V21.1065ZM3.17393 20.6756C3.08068 19.8479 2.68296 20.7799 3.17393 20.6756V20.6756ZM6.32567 22.5583C7.65909 22.0353 3.8976 21.4741 6.05322 22.4601L6.32567 22.5583ZM48.521 48.643C49.3744 47.8603 47.4377 48.4008 48.521 48.643V48.643ZM53.6188 51.2868C53.961 50.2757 52.7573 51.4199 53.6188 51.2868V51.2868ZM6.64838 20.9053C6.78947 19.9258 5.59064 21.1001 6.64838 20.9053V20.9053ZM2.162 17.8971C1.92118 16.5152 1.95442 14.0884 4.25883 14.908C1.18331 15.5199 6.38891 18.7354 5.73172 16.1963C7.02542 16.26 8.26236 15.431 7.58287 16.6876C10.1326 16.4072 11.8986 14.1947 14.3611 14.5055C16.2787 14.2503 18.3756 14.0584 20.4424 13.2851C22.1415 13.1629 23.7774 11.3322 22.8466 10.2465C20.5296 10.0501 18.1031 10.3402 15.5425 10.8506C12.7046 11.4402 10.1265 12.562 7.263 13.0441C4.47087 13.4198 7.82369 14.0775 7.0238 14.2248C5.56834 14.7303 8.76103 15.0711 6.83528 15.6051C5.64618 15.3787 4.40762 14.9697 4.91602 13.7143C2.24267 14.0633 -0.107549 15.1726 2.0051 17.8955L2.162 17.8971ZM8.60616 14.6131C9.23172 12.3024 11.9634 16.5152 9.63228 14.9206C9.35497 14.7112 8.89563 14.5416 8.60616 14.6131ZM8.72778 13.4924C9.63228 12.8189 9.2078 13.8714 8.72778 13.4924V13.4924ZM9.87593 13.5115C9.95864 12.448 12.5067 14.0742 10.2959 13.8937L9.87593 13.5115ZM11.4469 12.8793C12.0218 12.207 11.6136 13.475 11.4469 12.8793V12.8793ZM11.8495 12.6099C12.8059 11.4609 17.2607 11.8759 13.9999 12.4971C13.1258 11.8378 12.456 12.8854 11.8495 12.6099ZM17.6645 11.7128C17.5205 8.57279 20.5547 12.827 17.6645 11.7128V11.7128ZM19.3149 11.7031C19.9182 10.1215 21.6571 11.0677 19.5951 11.3846C19.6393 11.5542 19.5335 12.2025 19.3149 11.7031ZM5.99768 20.0938C7.79977 18.989 4.0845 19.135 5.99768 20.0938V20.0938ZM7.33111 20.463C7.96316 19.7911 5.95633 20.1904 7.33111 20.463V20.463ZM3.4038 17.6752C4.43316 16.8828 2.18429 17.3741 3.4038 17.6752V17.6752ZM56.6278 50.9983C56.6578 50.0789 55.8405 51.4118 56.6278 50.9983V50.9983ZM51.2195 47.3037C51.3732 46.2467 50.5242 47.3958 51.2195 47.3037V47.3037ZM58.1149 51.355C59.5546 51.3599 62.4776 50.9062 59.3454 50.9079C58.8528 50.9841 56.4807 50.9683 58.1149 51.355ZM8.50318 19.8147C9.66876 19.7355 10.326 18.5293 8.27655 18.5974C5.10129 18.2696 11.078 19.6865 7.86951 19.2807C7.43895 19.5659 8.47764 19.8942 8.50318 19.8147ZM9.5293 20.3348C9.40727 19.5866 9.16807 20.7325 9.5293 20.3348V20.3348ZM10.7472 17.0856C11.2523 16.458 10.047 16.9177 10.7472 17.0856V17.0856ZM6.87014 10.6015C8.95117 9.89469 11.7956 9.09903 12.7775 10.9504C11.7782 9.74741 12.3737 8.56183 13.3175 10.3227C14.6526 12.1027 15.3207 9.51289 14.4527 8.91523C15.4428 10.145 16.567 10.7269 15.1148 8.99313C16.6939 7.09264 11.9553 9.24185 10.8785 9.21954C10.3608 9.45243 5.52901 10.4526 6.87014 10.6015ZM8.08965 8.26564C9.27591 7.37017 12.1929 8.79959 10.3211 7.37463C10.1374 7.21315 6.22269 8.45553 8.08965 8.26564ZM12.4147 8.44457C13.802 8.47946 11.8163 6.57735 13.4696 7.43955C13.1988 6.55219 11.5438 6.38584 10.7346 6.03081C10.2769 6.8423 11.6655 8.45553 12.4147 8.44457ZM8.84819 4.51537C9.32821 3.86415 8.00573 4.84686 8.84819 4.51537V4.51537ZM10.6158 4.93856C12.8533 4.64237 10.0454 3.97492 10.1642 4.91503L10.6158 4.93856ZM7.3153 2.3552C5.73943 0.296469 10.2785 2.70089 8.6771 0.545189C7.32949 -0.527592 6.03579 1.7547 7.3153 2.3552ZM27.5308 13.2518C28.2532 11.9709 24.5489 11.5241 27.0447 12.7982C27.2742 12.8745 27.2223 13.3402 27.5308 13.2518Z" fill="black"/>
</svg>
