<svg width="84" height="50" viewBox="0 0 84 50" fill="none" xmlns="http://www.w3.org/2000/svg">
<g clip-path="url(#clip0)">
<path d="M41.2133 35.9161C41.0167 35.9161 40.8214 35.8656 40.649 35.7684L38.8526 34.7279C38.5843 34.581 38.7152 34.5291 38.8037 34.4992C39.1615 34.3766 39.2341 34.349 39.6159 34.1368C39.656 34.1144 39.7086 34.1223 39.7496 34.146L41.1297 34.9473C41.1795 34.9736 41.2502 34.9736 41.2964 34.9473L46.6773 31.9083C46.7271 31.8806 46.7594 31.8239 46.7594 31.7659V25.6905C46.7594 25.6299 46.7271 25.5759 46.6762 25.5455L41.2975 22.5092C41.2477 22.4802 41.1817 22.4802 41.1318 22.5092L35.7542 25.5455C35.7021 25.5745 35.669 25.6312 35.669 25.6892V31.7646C35.669 31.8226 35.7013 31.8779 35.7525 31.9056L37.226 32.7385C38.026 33.1299 38.5149 32.6687 38.5149 32.2048V26.2084C38.5149 26.1228 38.5836 26.0569 38.6712 26.0569H39.3527C39.4376 26.0569 39.5076 26.1228 39.5076 26.2084V32.2074C39.5076 33.2512 38.9257 33.8508 37.9142 33.8508C37.6031 33.8508 37.358 33.8508 36.6737 33.5213L35.2622 32.7253C35.0906 32.6274 34.9482 32.4871 34.8492 32.3186C34.7501 32.15 34.698 31.959 34.6978 31.7646V25.6892C34.6978 25.2938 34.9133 24.9248 35.2622 24.7298L40.6484 21.6894C40.9892 21.501 41.4417 21.501 41.7798 21.6894L47.1593 24.7311C47.3309 24.8288 47.4733 24.9688 47.5724 25.1371C47.6714 25.3055 47.7236 25.4963 47.7237 25.6905V31.7659C47.7237 32.16 47.5068 32.5277 47.1593 32.7253L41.7798 35.7657C41.6074 35.8628 41.4118 35.9138 41.2128 35.9133" fill="#689F63"/>
<path d="M42.8754 31.7299C40.521 31.7299 40.0274 30.6724 40.0274 29.7855C40.0274 29.7011 40.0969 29.6339 40.1832 29.6339H40.8782C40.955 29.6339 41.0196 29.6886 41.0317 29.7628C41.1368 30.4558 41.4493 30.8053 42.8729 30.8053C44.007 30.8053 44.4892 30.5546 44.4892 29.9662C44.4892 29.6275 44.3518 29.3757 42.5901 29.2071C41.1166 29.0647 40.2061 28.7471 40.2061 27.594C40.2061 26.5318 41.122 25.8992 42.6561 25.8992C44.3788 25.8992 45.2327 26.4843 45.3405 27.7416C45.3422 27.7627 45.3395 27.784 45.3325 27.8041C45.3255 27.8241 45.3142 27.8425 45.2996 27.8581C45.2849 27.8737 45.267 27.8862 45.2472 27.8947C45.2273 27.9032 45.2059 27.9076 45.1842 27.9076H44.4852C44.4124 27.9076 44.3491 27.8576 44.3343 27.789C44.166 27.0602 43.7592 26.827 42.6534 26.827C41.4156 26.827 41.2715 27.2487 41.2715 27.565C41.2715 27.9485 41.4412 28.0605 43.1113 28.2766C44.7653 28.4915 45.5506 28.7946 45.5506 29.9319C45.5506 31.0784 44.5727 31.7361 42.8676 31.7361L42.8754 31.7299ZM49.4216 25.293H49.602C49.7502 25.293 49.7785 25.1915 49.7785 25.1322C49.7785 24.9767 49.6694 24.9767 49.6088 24.9767H49.4229L49.4216 25.293ZM49.202 24.7948H49.602C49.7394 24.7948 50.0088 24.7948 50.0088 25.0953C50.0088 25.3048 49.8714 25.3483 49.7893 25.3747C49.9495 25.3852 49.9603 25.488 49.9819 25.633C49.9926 25.7239 50.0101 25.8807 50.0425 25.9335H49.796C49.7893 25.8807 49.7515 25.5908 49.7515 25.575C49.7354 25.5104 49.7125 25.4788 49.6303 25.4788H49.4269V25.9348H49.202V24.7948ZM48.7212 25.3615C48.7212 25.8333 49.1104 26.2155 49.5886 26.2155C50.0708 26.2155 50.46 25.8254 50.46 25.3615C50.46 24.8884 50.0654 24.5128 49.5872 24.5128C49.1158 24.5128 48.7198 24.8831 48.7198 25.3602L48.7212 25.3615ZM50.627 25.3641C50.627 25.9229 50.1597 26.3789 49.5899 26.3789C49.0242 26.3789 48.5528 25.9282 48.5528 25.3641C48.5528 24.7895 49.035 24.3494 49.5899 24.3494C50.1489 24.3494 50.6257 24.7909 50.6257 25.3641" fill="#689F63"/>
<path fill-rule="evenodd" clip-rule="evenodd" d="M24.5507 12.1443C24.5507 11.9018 24.4201 11.6791 24.2062 11.5585L18.5013 8.34683C18.4059 8.29242 18.2981 8.26208 18.1877 8.25853H18.1287C18.0194 8.26248 17.9115 8.29148 17.8136 8.34683L12.1089 11.5585C12.004 11.6182 11.917 11.7038 11.8564 11.8067C11.7959 11.9096 11.764 12.0262 11.7639 12.1449L11.7764 20.7955C11.7764 20.9154 11.8397 21.0274 11.9474 21.0867C12.0525 21.15 12.1845 21.15 12.2895 21.0867L15.681 19.1864C15.8952 19.0617 16.0258 18.8413 16.0258 18.6012V14.56C16.0256 14.4416 16.0573 14.3253 16.1177 14.2228C16.1781 14.1203 16.2652 14.0352 16.37 13.9761L17.8138 13.1625C17.9186 13.103 18.0375 13.0717 18.1586 13.0718C18.2766 13.0718 18.397 13.1016 18.5013 13.1624L19.9445 13.9757C20.1581 14.0957 20.2893 14.3184 20.2893 14.5596V18.6006C20.2893 18.8404 20.4217 19.0618 20.6348 19.1857L24.0241 21.0848C24.0762 21.1152 24.1358 21.1312 24.1965 21.1312C24.2572 21.1312 24.3168 21.1152 24.3689 21.0848C24.4208 21.055 24.4639 21.0124 24.4938 20.9613C24.5238 20.9103 24.5396 20.8524 24.5397 20.7935L24.5507 12.1443ZM51.4708 16.6483C51.4708 16.7085 51.4381 16.7642 51.3846 16.794L49.4252 17.8992C49.399 17.9139 49.3694 17.9216 49.3392 17.9216C49.309 17.9216 49.2794 17.9139 49.2532 17.8992L47.2935 16.794C47.2396 16.7641 47.2073 16.7084 47.2073 16.6483V14.4348C47.2073 14.3744 47.2396 14.3188 47.2921 14.2885L49.2505 13.1815C49.3044 13.1511 49.3704 13.1511 49.4242 13.1815L51.384 14.2885C51.4378 14.3188 51.4702 14.3744 51.4702 14.4348L51.4708 16.6483ZM52.0002 0.253614C51.9477 0.225035 51.8885 0.210333 51.8284 0.210957C51.7683 0.211581 51.7094 0.227509 51.6575 0.257172C51.5525 0.317795 51.4876 0.428496 51.4876 0.548423V9.11462C51.4876 9.15604 51.4765 9.19675 51.4554 9.23263C51.4342 9.26852 51.4038 9.29832 51.3672 9.31903C51.3305 9.33975 51.2889 9.35064 51.2466 9.35062C51.2043 9.35059 51.1627 9.33965 51.126 9.31889L49.697 8.51354C49.5923 8.45436 49.4736 8.4232 49.3527 8.4232C49.2318 8.4232 49.1131 8.45436 49.0085 8.51354L43.3017 11.7361C43.197 11.7951 43.11 11.8799 43.0494 11.9822C42.9889 12.0844 42.957 12.2005 42.9569 12.3186V18.7657C42.9569 19.0069 43.0884 19.2283 43.3017 19.3495L49.0085 22.5744C49.2215 22.6943 49.4839 22.6943 49.6977 22.5744L55.4045 19.3482C55.6173 19.227 55.7493 19.0056 55.7493 18.7644V2.69683C55.7491 2.57669 55.7161 2.45878 55.6539 2.35523C55.5916 2.25169 55.5023 2.16626 55.395 2.10774L52.0002 0.253614ZM71.0039 14.3765C71.1081 14.3172 71.1946 14.2321 71.2547 14.1299C71.3148 14.0276 71.3464 13.9117 71.3464 13.7937V12.2313C71.3464 11.9909 71.2158 11.7691 71.0034 11.6481L65.333 8.42722C65.228 8.36766 65.1088 8.3363 64.9875 8.3363C64.8661 8.3363 64.747 8.36766 64.642 8.42722L58.9366 11.6494C58.7224 11.7707 58.5917 11.9921 58.5917 12.2332V18.6777C58.5917 18.9202 58.7251 19.1442 58.9392 19.2641L64.6083 22.4257C64.8171 22.543 65.073 22.5443 65.2845 22.4297L68.7137 20.5649C68.8214 20.5056 68.8901 20.3935 68.8901 20.2723C68.8901 20.1511 68.8241 20.0377 68.7164 19.9784L62.9759 16.7549C62.8681 16.6956 62.8021 16.5836 62.8021 16.4636V14.442C62.8021 14.3213 62.8668 14.2101 62.9745 14.15L64.7605 13.1418C64.8669 13.0812 64.9976 13.0812 65.104 13.1418L66.8913 14.15C66.9977 14.2093 67.0637 14.3213 67.0637 14.4412V16.0306C67.0637 16.1505 67.1297 16.2625 67.2361 16.3231C67.3425 16.3825 67.4745 16.3825 67.5809 16.3218L71.0039 14.3765Z" fill="#333333"/>
<path fill-rule="evenodd" clip-rule="evenodd" d="M64.904 14.0751C64.924 14.0637 64.9468 14.0576 64.97 14.0576C64.9932 14.0576 65.016 14.0637 65.036 14.0751L66.131 14.6932C66.172 14.7164 66.197 14.7591 66.197 14.8052V16.0427C66.197 16.0888 66.172 16.1315 66.131 16.1547L65.036 16.7728C65.016 16.7843 64.9932 16.7903 64.97 16.7903C64.9468 16.7903 64.924 16.7843 64.904 16.7728L63.8096 16.1547C63.7893 16.1436 63.7723 16.1273 63.7605 16.1076C63.7487 16.0879 63.7424 16.0655 63.7423 16.0427V14.8052C63.7423 14.7591 63.7665 14.7164 63.8083 14.6932L64.904 14.0751Z" fill="#689F63"/>
<path d="M45.848 11.1199L29.8583 3.45117L21.6598 19.8158L37.649 27.4849L45.848 11.1199Z" fill="url(#paint0_linear)"/>
<path d="M20.6216 13.388L31.9119 28.3397L46.8436 17.5455L35.5526 2.59424L20.6216 13.388Z" fill="url(#paint1_linear)"/>
<path d="M27.7534 8.37085V22.5288H40.1021V8.37085H27.7534Z" fill="url(#paint2_linear)"/>
</g>
<defs>
<linearGradient id="paint0_linear" x1="37.8483" y1="7.27348" x2="29.9344" y2="23.7732" gradientUnits="userSpaceOnUse">
<stop offset="0.3" stop-color="#3E863D"/>
<stop offset="0.5" stop-color="#55934F"/>
<stop offset="0.8" stop-color="#5AAD45"/>
</linearGradient>
<linearGradient id="paint1_linear" x1="26.3344" y1="20.9496" x2="41.0355" y2="9.84806" gradientUnits="userSpaceOnUse">
<stop offset="0.57" stop-color="#3E863D"/>
<stop offset="0.72" stop-color="#619857"/>
<stop offset="1" stop-color="#76AC64"/>
</linearGradient>
<linearGradient id="paint2_linear" x1="27.7575" y1="15.4502" x2="40.1045" y2="15.4502" gradientUnits="userSpaceOnUse">
<stop offset="0.16" stop-color="#6BBF47"/>
<stop offset="0.38" stop-color="#79B461"/>
<stop offset="0.47" stop-color="#75AC64"/>
<stop offset="0.7" stop-color="#659E5A"/>
<stop offset="0.9" stop-color="#3E863D"/>
</linearGradient>
<clipPath id="clip0">
<rect width="82.9455" height="49.7015" fill="white" transform="translate(0.0821991 0.253662)"/>
</clipPath>
</defs>
</svg>
