<svg width="69" height="35" viewBox="0 0 69 35" fill="none" xmlns="http://www.w3.org/2000/svg">
<path d="M16.4453 19.9968C15.8516 19.9968 15.4688 20.1765 15.2969 20.5359C15.1406 20.8953 15.0625 21.7312 15.0625 23.0437C15.0625 25.0281 15.1875 26.575 15.4375 27.6843C15.5156 27.9968 15.6328 28.239 15.7891 28.4109C15.9453 28.5828 16.2422 28.7937 16.6797 29.0437C17.6172 29.5593 18.0859 30.239 18.0859 31.0828C18.0859 32.114 17.4297 32.8484 16.1172 33.2859C14.8203 33.7078 12.6172 33.9187 9.50781 33.9187C3.72656 33.9187 0.835938 32.825 0.835938 30.6375C0.835938 30.2625 0.921875 29.9656 1.09375 29.7468C1.26562 29.5125 1.65625 29.1921 2.26562 28.7859C2.95312 28.3328 3.41406 27.8015 3.64844 27.1921C3.89844 26.5671 4.07031 25.4968 4.16406 23.9812C4.24219 22.8718 4.28125 18.8953 4.28125 12.0515C4.28125 9.87964 4.17188 8.40308 3.95312 7.62183C3.73438 6.84058 3.26562 6.27026 2.54688 5.91089C1.85938 5.58276 1.39844 5.28589 1.16406 5.02026C0.929688 4.73901 0.8125 4.37964 0.8125 3.94214C0.8125 3.36401 1.03125 2.86401 1.46875 2.44214C1.92188 2.00464 2.54688 1.68433 3.34375 1.4812C4.01562 1.30933 4.9375 1.22339 6.10938 1.22339C6.625 1.22339 7.91406 1.30151 9.97656 1.45776C10.3672 1.48901 10.9844 1.50464 11.8281 1.50464C13.2344 1.50464 15.1094 1.41089 17.4531 1.22339C18.9375 1.11401 19.9766 1.05933 20.5703 1.05933C23.9141 1.05933 26.6797 1.86401 28.8672 3.47339C30.8359 4.92651 31.8203 6.94214 31.8203 9.52026C31.8203 10.9578 31.4766 12.2703 30.7891 13.4578C30.1016 14.6296 29.1562 15.5125 27.9531 16.1062C27.4531 16.3562 27.2031 16.6531 27.2031 16.9968C27.2031 17.45 27.5859 17.8171 28.3516 18.0984C29.9922 18.6921 31.1953 19.5906 31.9609 20.7937C32.7266 21.9968 33.2734 23.8406 33.6016 26.325C33.7422 27.3562 33.9453 28.0281 34.2109 28.3406C34.4766 28.6375 35.0938 28.9265 36.0625 29.2078C36.3594 29.3015 36.6094 29.5046 36.8125 29.8171C37.0156 30.114 37.1172 30.45 37.1172 30.825C37.1172 31.3093 36.9297 31.8015 36.5547 32.3015C36.1797 32.7859 35.6953 33.1687 35.1016 33.45C33.7891 34.0593 31.9922 34.364 29.7109 34.364C26.6641 34.364 24.4844 33.5593 23.1719 31.95C22.5781 31.2312 22.0703 30.325 21.6484 29.2312C21.2422 28.1375 20.7578 26.4343 20.1953 24.1218C19.8359 22.6375 19.375 21.5906 18.8125 20.9812C18.2656 20.3718 17.4766 20.0437 16.4453 19.9968ZM15.0859 8.0437L14.8281 13.5046C14.8281 13.5515 14.8281 13.6218 14.8281 13.7156C14.8281 14.2781 14.9062 14.6531 15.0625 14.8406C15.2344 15.0281 15.5703 15.1218 16.0703 15.1218C17.4453 15.1218 18.4453 14.7703 19.0703 14.0671C19.6953 13.3484 20.0078 12.2078 20.0078 10.6453C20.0078 7.62964 18.9375 6.12183 16.7969 6.12183C16.1875 6.12183 15.7578 6.26245 15.5078 6.5437C15.2578 6.82495 15.1172 7.32495 15.0859 8.0437ZM53.4531 11.7V22.4578C53.4531 24.8796 53.6641 26.4421 54.0859 27.1453C54.6016 27.9734 55.6875 28.3875 57.3438 28.3875C59.125 28.3875 60.5312 27.9968 61.5625 27.2156C62.5938 26.4343 63.3125 25.2156 63.7188 23.5593C63.9531 22.5437 64.4844 22.0359 65.3125 22.0359C66.1406 22.0359 66.8125 22.4109 67.3281 23.1609C67.8594 23.8953 68.125 24.8562 68.125 26.0437C68.125 27.9812 67.4062 30.0515 65.9688 32.2546C65.5156 32.9578 65.1172 33.4343 64.7734 33.6843C64.4297 33.95 64.0156 34.0828 63.5312 34.0828L58.3281 33.45H41.9453C40.8672 33.45 40.1094 33.325 39.6719 33.075C39.0312 32.7156 38.7109 32.1765 38.7109 31.4578C38.7109 31.0203 38.8125 30.7 39.0156 30.4968C39.2344 30.2781 39.75 29.9734 40.5625 29.5828C41.4531 29.1609 42.0234 28.5671 42.2734 27.8015C42.4766 27.1609 42.5781 25.2937 42.5781 22.2C42.5781 20.7625 42.5391 18.6921 42.4609 15.989C42.3828 13.3953 42.3359 11.4421 42.3203 10.1296C42.3203 8.87964 42.2188 8.02808 42.0156 7.57495C41.8281 7.1062 41.4219 6.77026 40.7969 6.56714C39.7656 6.20776 39.1094 5.9187 38.8281 5.69995C38.3281 5.30933 38.0781 4.86401 38.0781 4.36401C38.0781 3.22339 39.0234 2.3562 40.9141 1.76245C42.5234 1.24683 44.6797 0.989014 47.3828 0.989014C50.4141 0.989014 52.6797 1.14526 54.1797 1.45776C56.1172 1.87964 57.0859 2.72339 57.0859 3.98901C57.0859 4.50464 56.9531 4.88745 56.6875 5.13745C56.4375 5.38745 55.8125 5.72339 54.8125 6.14526C54.2188 6.41089 53.8438 6.86401 53.6875 7.50464C53.5312 8.14526 53.4531 9.5437 53.4531 11.7Z" fill="#001AC4"/>
</svg>
