<svg width="69" height="35" viewBox="0 0 69 35" fill="none" xmlns="http://www.w3.org/2000/svg">
<path d="M16.4453 19.9969C15.8516 19.9969 15.4688 20.1766 15.2969 20.5359C15.1406 20.8953 15.0625 21.7313 15.0625 23.0438C15.0625 25.0281 15.1875 26.575 15.4375 27.6844C15.5156 27.9969 15.6328 28.2391 15.7891 28.4109C15.9453 28.5828 16.2422 28.7938 16.6797 29.0438C17.6172 29.5594 18.0859 30.2391 18.0859 31.0828C18.0859 32.1141 17.4297 32.8484 16.1172 33.2859C14.8203 33.7078 12.6172 33.9188 9.50781 33.9188C3.72656 33.9188 0.835938 32.825 0.835938 30.6375C0.835938 30.2625 0.921875 29.9656 1.09375 29.7469C1.26562 29.5125 1.65625 29.1922 2.26562 28.7859C2.95312 28.3328 3.41406 27.8016 3.64844 27.1922C3.89844 26.5672 4.07031 25.4969 4.16406 23.9813C4.24219 22.8719 4.28125 18.8953 4.28125 12.0516C4.28125 9.8797 4.17188 8.40314 3.95312 7.62189C3.73438 6.84064 3.26562 6.27032 2.54688 5.91095C1.85938 5.58282 1.39844 5.28595 1.16406 5.02032C0.929688 4.73907 0.8125 4.3797 0.8125 3.9422C0.8125 3.36407 1.03125 2.86407 1.46875 2.4422C1.92188 2.0047 2.54688 1.68439 3.34375 1.48126C4.01562 1.30939 4.9375 1.22345 6.10938 1.22345C6.625 1.22345 7.91406 1.30157 9.97656 1.45782C10.3672 1.48907 10.9844 1.5047 11.8281 1.5047C13.2344 1.5047 15.1094 1.41095 17.4531 1.22345C18.9375 1.11407 19.9766 1.05939 20.5703 1.05939C23.9141 1.05939 26.6797 1.86407 28.8672 3.47345C30.8359 4.92657 31.8203 6.9422 31.8203 9.52032C31.8203 10.9578 31.4766 12.2703 30.7891 13.4578C30.1016 14.6297 29.1562 15.5125 27.9531 16.1063C27.4531 16.3563 27.2031 16.6531 27.2031 16.9969C27.2031 17.45 27.5859 17.8172 28.3516 18.0984C29.9922 18.6922 31.1953 19.5906 31.9609 20.7938C32.7266 21.9969 33.2734 23.8406 33.6016 26.325C33.7422 27.3563 33.9453 28.0281 34.2109 28.3406C34.4766 28.6375 35.0938 28.9266 36.0625 29.2078C36.3594 29.3016 36.6094 29.5047 36.8125 29.8172C37.0156 30.1141 37.1172 30.45 37.1172 30.825C37.1172 31.3094 36.9297 31.8016 36.5547 32.3016C36.1797 32.7859 35.6953 33.1688 35.1016 33.45C33.7891 34.0594 31.9922 34.3641 29.7109 34.3641C26.6641 34.3641 24.4844 33.5594 23.1719 31.95C22.5781 31.2313 22.0703 30.325 21.6484 29.2313C21.2422 28.1375 20.7578 26.4344 20.1953 24.1219C19.8359 22.6375 19.375 21.5906 18.8125 20.9813C18.2656 20.3719 17.4766 20.0438 16.4453 19.9969ZM15.0859 8.04376L14.8281 13.5047C14.8281 13.5516 14.8281 13.6219 14.8281 13.7156C14.8281 14.2781 14.9062 14.6531 15.0625 14.8406C15.2344 15.0281 15.5703 15.1219 16.0703 15.1219C17.4453 15.1219 18.4453 14.7703 19.0703 14.0672C19.6953 13.3484 20.0078 12.2078 20.0078 10.6453C20.0078 7.6297 18.9375 6.12189 16.7969 6.12189C16.1875 6.12189 15.7578 6.26251 15.5078 6.54376C15.2578 6.82501 15.1172 7.32501 15.0859 8.04376Z" fill="#001AC4"/>
<path d="M53.4531 11.7V22.4578C53.4531 24.8797 53.6641 26.4422 54.0859 27.1453C54.6016 27.9734 55.6875 28.3875 57.3438 28.3875C59.125 28.3875 60.5312 27.9969 61.5625 27.2156C62.5938 26.4344 63.3125 25.2156 63.7188 23.5594C63.9531 22.5438 64.4844 22.0359 65.3125 22.0359C66.1406 22.0359 66.8125 22.4109 67.3281 23.1609C67.8594 23.8953 68.125 24.8563 68.125 26.0438C68.125 27.9813 67.4062 30.0516 65.9688 32.2547C65.5156 32.9578 65.1172 33.4344 64.7734 33.6844C64.4297 33.95 64.0156 34.0828 63.5312 34.0828L58.3281 33.45H41.9453C40.8672 33.45 40.1094 33.325 39.6719 33.075C39.0312 32.7156 38.7109 32.1766 38.7109 31.4578C38.7109 31.0203 38.8125 30.7 39.0156 30.4969C39.2344 30.2781 39.75 29.9734 40.5625 29.5828C41.4531 29.1609 42.0234 28.5672 42.2734 27.8016C42.4766 27.1609 42.5781 25.2938 42.5781 22.2C42.5781 20.7625 42.5391 18.6922 42.4609 15.9891C42.3828 13.3953 42.3359 11.4422 42.3203 10.1297C42.3203 8.8797 42.2188 8.02814 42.0156 7.57501C41.8281 7.10626 41.4219 6.77032 40.7969 6.5672C39.7656 6.20782 39.1094 5.91876 38.8281 5.70001C38.3281 5.30939 38.0781 4.86407 38.0781 4.36407C38.0781 3.22345 39.0234 2.35626 40.9141 1.76251C42.5234 1.24689 44.6797 0.989075 47.3828 0.989075C50.4141 0.989075 52.6797 1.14532 54.1797 1.45782C56.1172 1.8797 57.0859 2.72345 57.0859 3.98907C57.0859 4.5047 56.9531 4.88751 56.6875 5.13751C56.4375 5.38751 55.8125 5.72345 54.8125 6.14532C54.2188 6.41095 53.8438 6.86407 53.6875 7.5047C53.5312 8.14532 53.4531 9.54376 53.4531 11.7Z" fill="#001AC4"/>
</svg>
