<svg width="103" height="51" viewBox="0 0 103 51" fill="none" xmlns="http://www.w3.org/2000/svg">
<path d="M23.921 29.0456C23.0124 29.0456 22.4266 29.3202 22.1636 29.8694C21.9246 30.4185 21.805 31.6959 21.805 33.7015C21.805 36.7338 21.9963 39.0976 22.3788 40.7928C22.4984 41.2704 22.6777 41.6405 22.9168 41.9031C23.1559 42.1657 23.6101 42.4881 24.2796 42.8701C25.7141 43.658 26.4314 44.6966 26.4314 45.986C26.4314 47.5618 25.4272 48.684 23.4189 49.3525C21.4344 49.9972 18.0633 50.3195 13.3054 50.3195C4.45903 50.3195 0.0358635 48.6482 0.0358635 45.3055C0.0358635 44.7324 0.167363 44.2788 0.430362 43.9445C0.693361 43.5864 1.29109 43.0969 2.22354 42.4761C3.27553 41.7837 3.98085 40.9719 4.33948 40.0407C4.72203 39.0857 4.98503 37.4501 5.12848 35.1341C5.24803 33.4389 5.3078 27.3624 5.3078 16.9045C5.3078 13.5857 5.14044 11.3294 4.80571 10.1355C4.47098 8.94171 3.75371 8.07022 2.6539 7.52107C1.6019 7.01966 0.896588 6.56601 0.537953 6.16011C0.179318 5.73034 0 5.18118 0 4.51264C0 3.62921 0.334726 2.86517 1.00418 2.22051C1.69754 1.55197 2.6539 1.0625 3.87326 0.752107C4.90135 0.489466 6.31198 0.358146 8.10515 0.358146C8.89415 0.358146 10.8666 0.477528 14.0226 0.716292C14.6204 0.764045 15.5648 0.787921 16.8559 0.787921C19.0077 0.787921 21.8767 0.644663 25.4631 0.358146C27.7344 0.191011 29.3244 0.107444 30.2329 0.107444C35.3495 0.107444 39.5814 1.33708 42.9286 3.79635C45.9412 6.01685 47.4474 9.09691 47.4474 13.0365C47.4474 15.2331 46.9214 17.2388 45.8694 19.0534C44.8174 20.8441 43.3709 22.1931 41.5299 23.1004C40.7649 23.4824 40.3823 23.9361 40.3823 24.4614C40.3823 25.1538 40.9681 25.7149 42.1396 26.1447C44.6501 27.052 46.4911 28.4249 47.6626 30.2633C48.8341 32.1018 49.671 34.9192 50.173 38.7156C50.3882 40.2914 50.699 41.3181 51.1055 41.7956C51.512 42.2493 52.4564 42.691 53.9387 43.1208C54.393 43.264 54.7755 43.5744 55.0863 44.052C55.3972 44.5056 55.5526 45.019 55.5526 45.592C55.5526 46.3322 55.2657 47.0843 54.6919 47.8483C54.118 48.5885 53.3769 49.1735 52.4683 49.6032C50.46 50.5344 47.7104 51 44.2197 51C39.5575 51 36.2221 49.7704 34.2138 47.3111C33.3052 46.2128 32.5282 44.8279 31.8827 43.1566C31.261 41.4853 30.5198 38.8827 29.6591 35.349C29.1092 33.0808 28.4039 31.481 27.5432 30.5499C26.7064 29.6187 25.499 29.1173 23.921 29.0456ZM21.8409 10.7802L21.4464 19.125C21.4464 19.1966 21.4464 19.3041 21.4464 19.4473C21.4464 20.3069 21.5659 20.8799 21.805 21.1664C22.068 21.453 22.5821 21.5962 23.3471 21.5962C25.4511 21.5962 26.9813 21.059 27.9377 19.9846C28.894 18.8862 29.3722 17.1433 29.3722 14.7556C29.3722 10.1475 27.7344 7.8434 24.4589 7.8434C23.5265 7.8434 22.869 8.05829 22.4864 8.48806C22.1039 8.91784 21.8887 9.68188 21.8409 10.7802Z" fill="url(#paint0_linear)"/>
<path d="M80.5494 16.3673V32.8062C80.5494 36.507 80.8722 38.8947 81.5178 39.9691C82.3068 41.2346 83.9684 41.8673 86.5028 41.8673C89.2284 41.8673 91.3802 41.2704 92.9582 40.0765C94.5362 38.8827 95.636 37.0204 96.2577 34.4895C96.6163 32.9375 97.4292 32.1615 98.6964 32.1615C99.9636 32.1615 100.992 32.7346 101.781 33.8806C102.594 35.0028 103 36.4712 103 38.2858C103 41.2465 101.9 44.4101 99.7006 47.7767C99.0072 48.8511 98.3975 49.5794 97.8715 49.9614C97.3455 50.3673 96.7119 50.5702 95.9707 50.5702L88.009 49.6032H62.9405C61.2907 49.6032 60.1312 49.4122 59.4617 49.0302C58.4814 48.481 57.9913 47.6573 57.9913 46.559C57.9913 45.8904 58.1467 45.401 58.4575 45.0906C58.7922 44.7563 59.5812 44.2907 60.8245 43.6938C62.1873 43.0492 63.06 42.1419 63.4425 40.9719C63.7534 39.993 63.9088 37.1397 63.9088 32.4122C63.9088 30.2156 63.849 27.052 63.7295 22.9213C63.6099 18.9579 63.5382 15.9733 63.5143 13.9677C63.5143 12.0576 63.3589 10.7563 63.048 10.0639C62.7611 9.34761 62.1395 8.83427 61.1831 8.52388C59.6052 7.97472 58.601 7.53301 58.1706 7.19874C57.4055 6.60183 57.023 5.92135 57.023 5.1573C57.023 3.41433 58.4695 2.08919 61.3625 1.18188C63.8251 0.393961 67.1245 0 71.2608 0C75.8991 0 79.3659 0.238764 81.6612 0.716292C84.6259 1.36096 86.1083 2.65028 86.1083 4.58427C86.1083 5.37219 85.9051 5.95716 85.4986 6.33919C85.1161 6.72121 84.1597 7.23455 82.6295 7.87921C81.721 8.28511 81.1472 8.97753 80.9081 9.95646C80.669 10.9354 80.5494 13.0723 80.5494 16.3673Z" fill="url(#paint1_linear)"/>
<defs>
<linearGradient id="paint0_linear" x1="45.5" y1="-20" x2="52" y2="65" gradientUnits="userSpaceOnUse">
<stop offset="0.421875" stop-color="#FCFCFF" stop-opacity="0.81"/>
<stop offset="1" stop-color="#001AC4"/>
</linearGradient>
<linearGradient id="paint1_linear" x1="45.5" y1="-20" x2="52" y2="65" gradientUnits="userSpaceOnUse">
<stop offset="0.421875" stop-color="#FCFCFF" stop-opacity="0.81"/>
<stop offset="1" stop-color="#001AC4"/>
</linearGradient>
</defs>
</svg>
