<svg width="69" height="34" viewBox="0 0 69 34" fill="none" xmlns="http://www.w3.org/2000/svg">
<path d="M16.4453 19.5469C15.8516 19.5469 15.4688 19.7266 15.2969 20.0859C15.1406 20.4453 15.0625 21.2812 15.0625 22.5938C15.0625 24.5781 15.1875 26.125 15.4375 27.2344C15.5156 27.5469 15.6328 27.7891 15.7891 27.9609C15.9453 28.1328 16.2422 28.3438 16.6797 28.5938C17.6172 29.1094 18.0859 29.7891 18.0859 30.6328C18.0859 31.6641 17.4297 32.3984 16.1172 32.8359C14.8203 33.2578 12.6172 33.4688 9.50781 33.4688C3.72656 33.4688 0.835938 32.375 0.835938 30.1875C0.835938 29.8125 0.921875 29.5156 1.09375 29.2969C1.26562 29.0625 1.65625 28.7422 2.26562 28.3359C2.95312 27.8828 3.41406 27.3516 3.64844 26.7422C3.89844 26.1172 4.07031 25.0469 4.16406 23.5312C4.24219 22.4219 4.28125 18.4453 4.28125 11.6016C4.28125 9.42969 4.17188 7.95312 3.95312 7.17188C3.73438 6.39062 3.26562 5.82031 2.54688 5.46094C1.85938 5.13281 1.39844 4.83594 1.16406 4.57031C0.929688 4.28906 0.8125 3.92969 0.8125 3.49219C0.8125 2.91406 1.03125 2.41406 1.46875 1.99219C1.92188 1.55469 2.54688 1.23438 3.34375 1.03125C4.01562 0.859375 4.9375 0.773438 6.10938 0.773438C6.625 0.773438 7.91406 0.851562 9.97656 1.00781C10.3672 1.03906 10.9844 1.05469 11.8281 1.05469C13.2344 1.05469 15.1094 0.960938 17.4531 0.773438C18.9375 0.664062 19.9766 0.609375 20.5703 0.609375C23.9141 0.609375 26.6797 1.41406 28.8672 3.02344C30.8359 4.47656 31.8203 6.49219 31.8203 9.07031C31.8203 10.5078 31.4766 11.8203 30.7891 13.0078C30.1016 14.1797 29.1562 15.0625 27.9531 15.6562C27.4531 15.9062 27.2031 16.2031 27.2031 16.5469C27.2031 17 27.5859 17.3672 28.3516 17.6484C29.9922 18.2422 31.1953 19.1406 31.9609 20.3438C32.7266 21.5469 33.2734 23.3906 33.6016 25.875C33.7422 26.9062 33.9453 27.5781 34.2109 27.8906C34.4766 28.1875 35.0938 28.4766 36.0625 28.7578C36.3594 28.8516 36.6094 29.0547 36.8125 29.3672C37.0156 29.6641 37.1172 30 37.1172 30.375C37.1172 30.8594 36.9297 31.3516 36.5547 31.8516C36.1797 32.3359 35.6953 32.7188 35.1016 33C33.7891 33.6094 31.9922 33.9141 29.7109 33.9141C26.6641 33.9141 24.4844 33.1094 23.1719 31.5C22.5781 30.7812 22.0703 29.875 21.6484 28.7812C21.2422 27.6875 20.7578 25.9844 20.1953 23.6719C19.8359 22.1875 19.375 21.1406 18.8125 20.5312C18.2656 19.9219 17.4766 19.5938 16.4453 19.5469ZM15.0859 7.59375L14.8281 13.0547C14.8281 13.1016 14.8281 13.1719 14.8281 13.2656C14.8281 13.8281 14.9062 14.2031 15.0625 14.3906C15.2344 14.5781 15.5703 14.6719 16.0703 14.6719C17.4453 14.6719 18.4453 14.3203 19.0703 13.6172C19.6953 12.8984 20.0078 11.7578 20.0078 10.1953C20.0078 7.17969 18.9375 5.67188 16.7969 5.67188C16.1875 5.67188 15.7578 5.8125 15.5078 6.09375C15.2578 6.375 15.1172 6.875 15.0859 7.59375Z" fill="white"/>
<path d="M53.4531 11.25V22.0078C53.4531 24.4297 53.6641 25.9922 54.0859 26.6953C54.6016 27.5234 55.6875 27.9375 57.3438 27.9375C59.125 27.9375 60.5312 27.5469 61.5625 26.7656C62.5938 25.9844 63.3125 24.7656 63.7188 23.1094C63.9531 22.0938 64.4844 21.5859 65.3125 21.5859C66.1406 21.5859 66.8125 21.9609 67.3281 22.7109C67.8594 23.4453 68.125 24.4062 68.125 25.5938C68.125 27.5312 67.4062 29.6016 65.9688 31.8047C65.5156 32.5078 65.1172 32.9844 64.7734 33.2344C64.4297 33.5 64.0156 33.6328 63.5312 33.6328L58.3281 33H41.9453C40.8672 33 40.1094 32.875 39.6719 32.625C39.0312 32.2656 38.7109 31.7266 38.7109 31.0078C38.7109 30.5703 38.8125 30.25 39.0156 30.0469C39.2344 29.8281 39.75 29.5234 40.5625 29.1328C41.4531 28.7109 42.0234 28.1172 42.2734 27.3516C42.4766 26.7109 42.5781 24.8438 42.5781 21.75C42.5781 20.3125 42.5391 18.2422 42.4609 15.5391C42.3828 12.9453 42.3359 10.9922 42.3203 9.67969C42.3203 8.42969 42.2188 7.57812 42.0156 7.125C41.8281 6.65625 41.4219 6.32031 40.7969 6.11719C39.7656 5.75781 39.1094 5.46875 38.8281 5.25C38.3281 4.85938 38.0781 4.41406 38.0781 3.91406C38.0781 2.77344 39.0234 1.90625 40.9141 1.3125C42.5234 0.796875 44.6797 0.539062 47.3828 0.539062C50.4141 0.539062 52.6797 0.695312 54.1797 1.00781C56.1172 1.42969 57.0859 2.27344 57.0859 3.53906C57.0859 4.05469 56.9531 4.4375 56.6875 4.6875C56.4375 4.9375 55.8125 5.27344 54.8125 5.69531C54.2188 5.96094 53.8438 6.41406 53.6875 7.05469C53.5312 7.69531 53.4531 9.09375 53.4531 11.25Z" fill="white"/>
</svg>
